<svg width="27" height="23" rx="10" ry="10" viewBox="0 0 21 16" fill="none" xmlns="http://www.w3.org/2000/svg">
<g id="MOROCCO">
<g id="Clip path group">
<mask id="mask0_1_22" style="mask-type:luminance" maskUnits="userSpaceOnUse" x="-4" y="0" rx="10" ry="10" width="29" height="16">
<g id="clippath-24">
<path id="Vector" d="M24.2118 0H-3.21205V16H24.2118V0Z" fill="white"/>
</g>
</mask>
<g mask="url(#mask0_1_22)">
<g id="Group">
<path id="Vector_2" d="M24.2118 0H-3.21205V16H24.2118V0Z" fill="#D3180C"/>
<path id="Vector_3" d="M9.41317 6.72523H5.88304L9.90347 9.79776L10.5 9.34016L8.06486 7.46885H9.18437L9.41317 6.72523Z" fill="#007D71"/>
<path id="Vector_4" d="M11.5948 6.72523L10.4998 3.19509L8.97173 8.16344L9.56825 8.62104L10.4998 5.6139L10.8512 6.72523H11.5948Z" fill="#007D71"/>
<path id="Vector_5" d="M12.2732 8.90706L15.1251 6.72523H10.1568L9.92796 7.46885H12.9351L12.0362 8.16344L12.2732 8.90706Z" fill="#007D71"/>
<path id="Vector_6" d="M10.5001 10.2635L13.3602 12.4372L11.8239 7.46885H11.0803L12.0119 10.4842L11.1048 9.79776L10.5001 10.2635Z" fill="#007D71"/>
<path id="Vector_7" d="M8.73493 8.90706L7.64812 12.4372L11.6685 9.37282L11.4316 8.62105L8.99643 10.4842L9.33964 9.37282L8.73493 8.90706Z" fill="#007D71"/>
</g>
</g>
</g>
<g id="SAUDI ARABIA">
<g id="Clip path group_2">
<mask id="mask1_1_22" style="mask-type:luminance" maskUnits="userSpaceOnUse" x="-4" y="-1" width="29" height="17">
<g id="clippath-135">
<path id="Vector_8" d="M24.2572 -0.0292892H-3.2169V16H24.2572V-0.0292892Z" fill="white"/>
</g>
</mask>
<g mask="url(#mask1_1_22)">
<g id="Group_2">
<path id="Vector_9" d="M24.2572 -0.0292892H-3.2169V16H24.2572V-0.0292892Z" fill="#3D9635"/>
<g id="Clip path group_3">
<mask id="mask2_1_22" style="mask-type:luminance" maskUnits="userSpaceOnUse" x="-4" y="-1" width="29" height="17">
<g id="clippath-136">
<path id="Vector_10" d="M24.2572 -0.0292892H-3.2169V16H24.2572V-0.0292892Z" fill="white"/>
</g>
</mask>
<g mask="url(#mask2_1_22)">
<g id="Group_3">
<path id="Vector_11" d="M4.56003 4.51424C4.53547 4.89082 4.49454 5.55394 4.81381 5.61943C5.19858 5.65218 4.98573 4.9645 5.12491 4.8417C5.14946 4.78439 5.19859 4.78441 5.20678 4.85809V5.43933C5.20678 5.62762 5.32957 5.68492 5.4278 5.71767C5.52604 5.71767 5.59154 5.71766 5.63247 5.8159C5.64884 6.15155 5.66521 6.48721 5.68159 6.82286C5.68159 6.82286 5.91901 6.89654 5.9272 6.25799C5.93538 5.8814 5.85352 5.57032 5.90264 5.49664C5.90264 5.42296 5.99269 5.42295 6.05819 5.45569C6.15643 5.52937 6.20554 5.61123 6.36109 5.57849C6.5985 5.51299 6.73767 5.3984 6.74586 5.2101C6.72948 5.03819 6.71311 4.85807 6.63943 4.68615C6.64761 4.65341 6.5903 4.57155 6.60667 4.5388C6.64761 4.60429 6.71312 4.59611 6.72949 4.5388C6.68856 4.40781 6.63125 4.27684 6.52483 4.21954C6.44296 4.14586 6.31195 4.16223 6.27102 4.31777C6.25465 4.48969 6.33653 4.70253 6.46751 4.87445C6.49207 4.93995 6.53301 5.05455 6.51663 5.15279C6.45114 5.18554 6.37747 5.17736 6.32016 5.11187C6.32016 5.11187 6.13186 4.96449 6.13186 4.93993C6.18098 4.62066 6.14006 4.57973 6.1155 4.48968C6.09913 4.36688 6.03361 4.32596 5.99268 4.2441C5.94356 4.18679 5.87808 4.18679 5.85352 4.2441C5.77166 4.39145 5.80439 4.69434 5.86989 4.8417C5.91082 4.97268 5.97632 5.04636 5.95176 5.04636C5.9272 5.12004 5.8699 5.10369 5.82896 5.01364C5.77166 4.84172 5.76346 4.57974 5.76346 4.46512C5.74708 4.31777 5.73071 4.01487 5.63247 3.933C5.57516 3.85932 5.48512 3.89205 5.46056 3.96573C5.46056 4.1049 5.46057 4.25227 5.46875 4.38325C5.53424 4.61248 5.5506 4.81715 5.58335 5.05456C5.58335 5.37383 5.40325 5.19373 5.41144 5.03C5.45237 4.82534 5.44419 4.50607 5.41144 4.4242C5.37869 4.34234 5.34595 4.32595 5.26409 4.33414C5.20678 4.33414 5.05123 4.49787 5.00211 4.77622C5.00211 4.77622 4.96118 4.92357 4.95299 5.05456C4.92843 5.20192 4.83838 5.30016 4.77289 5.03C4.71558 4.83352 4.68283 4.3587 4.58459 4.46512" fill="white"/>
<path id="Vector_12" d="M5.60805 6.04514C5.26422 6.21706 4.93677 6.36441 4.60112 6.52815C4.61749 6.29892 5.07594 5.88961 5.39522 5.88142C5.59988 5.88142 5.55075 5.96327 5.60805 6.04514Z" fill="white"/>
<path id="Vector_13" d="M6.88515 3.93301C6.88515 3.93301 6.84423 3.94938 6.81967 3.94938C6.73781 3.97394 6.65594 4.04762 6.68868 4.1868C6.78692 4.77623 6.84423 5.22647 6.94247 5.80772C6.95884 5.8814 6.90155 5.97145 6.82787 5.96327C6.69688 5.87322 6.6723 5.7013 6.45127 5.70949C6.29572 5.70949 6.11561 5.88141 6.09105 6.04514C6.0665 6.17612 6.05831 6.3153 6.09105 6.42991C6.20567 6.56089 6.33665 6.54453 6.45127 6.51997C6.5495 6.47904 6.62318 6.38898 6.65593 6.40535C6.65593 6.40535 6.65594 6.74918 6.20568 6.98659C5.93552 7.10939 5.71449 7.14214 5.59988 6.91291C5.5262 6.77374 5.59986 6.24163 5.42794 6.36443C4.89582 7.7234 6.66412 7.91986 6.86059 6.42171C6.87697 6.38078 6.90972 6.33985 6.94247 6.34804C6.95884 6.34804 6.96702 6.3726 6.96702 6.40535C6.92609 7.75613 5.59986 7.84619 5.37883 7.42867C5.32152 7.33043 5.30517 7.1094 5.29698 6.97022C5.28879 6.88836 5.26423 6.83925 5.23967 6.82287C5.18236 6.78194 5.11686 6.88836 5.10049 7.06846C5.07593 7.21582 5.08412 7.25675 5.08412 7.39592C5.1578 8.46836 6.86062 8.00992 7.13896 7.12577C7.27813 6.66732 7.13895 6.32349 7.17988 6.28256C7.3518 6.46266 7.58921 6.30713 7.63833 6.24163C7.66289 6.20889 7.72021 6.1925 7.75295 6.22524C7.88394 6.32348 8.11316 6.27438 8.16228 6.11064C8.18684 5.94691 8.21138 5.77497 8.21957 5.60306C8.12952 5.62762 8.06402 5.6522 8.03946 5.67676C8.03946 5.67676 8.03129 5.69313 8.0231 5.70132C8.0231 5.74225 8.00673 5.79955 7.99854 5.84867C7.99854 5.84867 7.99854 5.85685 7.99854 5.86503C7.99854 5.86503 7.99036 5.87324 7.98218 5.88142C7.94943 5.8978 7.9003 5.88141 7.89211 5.84047C7.85118 5.66037 7.68744 5.62762 7.58102 5.91415C7.50734 5.97146 7.38454 5.97965 7.37635 5.89779C7.39273 5.70131 7.31087 5.67675 7.15532 5.7668C7.1062 5.38203 7.05709 5.02182 7.00797 4.63705C7.07346 4.63705 7.13075 4.68617 7.19625 4.61249C7.13075 4.40782 6.99159 3.99849 6.91791 3.96574C6.91791 3.96574 6.9179 3.95756 6.90971 3.94938C6.90971 3.94938 6.90973 3.94938 6.90154 3.94938C6.90154 3.94938 6.88517 3.94938 6.87698 3.94938M6.40215 6.05333C6.40215 6.05333 6.47584 6.06153 6.49221 6.11064C6.50859 6.15158 6.4922 6.19251 6.47582 6.20888C6.47582 6.20888 6.41853 6.22524 6.38578 6.22524C6.34485 6.22524 6.32847 6.21707 6.30391 6.18432C6.29573 6.15157 6.32849 6.11065 6.34486 6.08609C6.34486 6.08609 6.34486 6.08608 6.34486 6.07789C6.36123 6.06971 6.37759 6.06152 6.40215 6.05333Z" fill="white"/>
<path id="Vector_14" d="M8.07208 3.90027C8.03114 3.90027 7.99022 3.91665 7.94928 3.93302C7.85923 4.02307 7.84284 4.15405 7.90833 4.23592C7.97383 4.26867 8.03933 4.33416 7.9984 4.36691C7.81011 4.57157 7.3189 4.90721 7.29434 4.97271C7.29434 4.97271 7.63 4.98908 7.66275 4.97271C7.76917 4.93177 8.26855 4.35871 8.26855 4.35871C8.24399 4.33415 8.21943 4.31777 8.19487 4.3014C8.17031 4.27684 8.17031 4.25229 8.19487 4.22773C8.31767 4.15405 8.27673 3.99031 8.21943 3.91663C8.16212 3.89207 8.11301 3.8839 8.07208 3.8839M8.04752 4.05581C8.04752 4.05581 8.11302 4.08855 8.12939 4.1213C8.14576 4.16223 8.13758 4.20317 8.10483 4.21136C8.07208 4.21136 8.03114 4.18679 8.01476 4.14585C7.99839 4.10492 8.00658 4.05581 8.03932 4.05581" fill="white"/>
<path id="Vector_15" d="M4.64206 7.01115C4.45376 7.31405 4.4374 7.75614 4.54382 7.89531C4.60113 7.9608 4.69119 7.98536 4.75668 7.96899C4.87129 7.91987 4.92858 7.67428 4.89584 7.59241C4.8549 7.52692 4.82215 7.51871 4.78941 7.57602C4.70754 7.73975 4.6748 7.62515 4.66661 7.5351C4.65024 7.35499 4.66661 7.19127 4.69117 7.06029C4.71573 6.9293 4.69118 6.97022 4.65025 7.01934" fill="white"/>
<path id="Vector_16" d="M12.6895 6.53634C12.5093 6.14339 12.2556 5.75862 12.1737 5.61126C12.0918 5.4639 11.486 4.58793 11.396 4.48151C11.1995 4.2441 11.7152 4.57976 11.3305 4.11313C11.1831 3.99033 11.1749 3.98213 11.0521 3.87571C10.9948 3.83478 10.8393 3.75291 10.8147 3.87571C10.7983 3.99032 10.8147 4.05581 10.8311 4.15405C10.8475 4.21954 10.9375 4.32597 10.9866 4.39147C11.6006 5.21831 12.1491 6.04514 12.6731 7.09303C12.7549 7.05209 12.7386 6.59366 12.6895 6.51998" fill="white"/>
<path id="Vector_17" d="M11.8872 7.8462C11.8872 7.8462 11.9772 8.05903 12.1328 8.05903C12.4029 8.02629 12.6404 7.87894 12.8614 7.47779C12.9187 7.38774 13.0251 7.18309 13.0251 7.02754C13.0415 6.11883 12.976 5.42296 12.845 4.75985C12.8368 4.69435 12.845 4.6207 12.845 4.60432C12.8614 4.57976 12.9187 4.6043 12.9514 4.55518C13.0006 4.50606 12.8287 4.11311 12.7304 3.96575C12.6977 3.90025 12.6813 3.85114 12.624 3.96575C12.5667 4.06399 12.5258 4.23592 12.5258 4.39147C12.6567 5.2838 12.6977 6.06153 12.7795 6.95387C12.7795 7.04392 12.7795 7.1667 12.7141 7.21582C12.5012 7.43686 12.1983 7.71521 11.8626 7.83801" fill="white"/>
<path id="Vector_18" d="M15.5384 7.83801C15.342 7.95262 15.342 8.08362 15.4975 8.08362C15.7677 8.05087 16.0869 8.02631 16.308 7.69885C16.3653 7.6088 16.439 7.355 16.439 7.19946C16.4635 6.29075 16.4308 5.4066 16.2916 4.75168C16.2834 4.69437 16.2507 4.54701 16.2671 4.52246C16.2834 4.48152 16.3735 4.52244 16.3981 4.48151C16.4472 4.44057 16.1688 4.08038 16.0788 3.93302C16.046 3.86753 16.0378 3.81839 15.9805 3.94119C15.9232 4.03943 15.8987 4.21136 15.9232 4.36691C16.0624 5.33292 16.1688 6.27438 16.1934 7.13397C16.1852 7.21584 16.177 7.26496 16.1361 7.3632C16.0542 7.47781 15.956 7.6088 15.8741 7.67429C15.784 7.73978 15.5958 7.80527 15.5384 7.8462" fill="white"/>
<path id="Vector_19" d="M15.6775 6.97022C15.6775 6.741 15.6775 6.54452 15.6775 6.38079C15.6775 6.21706 15.5957 5.57852 15.5711 5.44753C15.5465 5.30836 15.5138 5.10368 15.481 4.93994C15.4647 4.87445 15.4319 4.66981 15.4483 4.65343C15.4647 4.6125 15.522 4.65344 15.5547 4.60432C15.6038 4.5552 15.3992 4.03942 15.3009 3.89206C15.2682 3.82657 15.2027 3.85115 15.1208 3.95757C15.0472 4.03125 15.0717 4.1868 15.1045 4.34234C15.3009 5.34929 15.4401 6.41354 15.4155 7.37955C15.4074 7.46142 15.7021 7.13396 15.6939 6.97842" fill="white"/>
<path id="Vector_20" d="M14.2531 5.71768C14.1303 5.71768 13.8765 5.48027 13.8028 5.3411C13.7783 5.25924 13.8028 5.18556 13.8192 5.13644C13.8683 5.10369 13.9338 5.07094 13.9829 5.10368C13.9829 5.10368 14.0402 5.17737 14.0239 5.18555C14.0893 5.2183 14.1221 5.20191 14.1221 5.16917C14.1221 5.12823 14.0976 5.09549 14.0976 5.04637C14.1221 4.89901 14.2858 4.88264 14.3513 4.9727C14.3923 5.03 14.4168 5.14463 14.4168 5.21831C14.4168 5.25924 14.3513 5.21831 14.3104 5.21831C14.2695 5.22649 14.2613 5.26742 14.2613 5.30835C14.2613 5.41477 14.2449 5.57851 14.2367 5.70131" fill="white"/>
<path id="Vector_21" d="M12.0019 7.22402C12.0346 6.91293 11.9937 6.29075 11.9855 6.10246C11.9773 5.67676 11.9037 4.84172 11.8709 4.71074C11.83 4.44876 11.9773 4.74349 11.9528 4.58794C11.9036 4.32597 11.7645 4.15405 11.5925 3.91664C11.5352 3.84296 11.5434 3.8266 11.4534 3.93303C11.3633 4.14588 11.4452 4.29322 11.4616 4.45695C11.5844 4.99727 11.6581 5.48847 11.6908 5.97967C11.7235 6.47086 11.7317 7.07665 11.7072 7.60059C11.7972 7.60059 11.9446 7.45325 11.9937 7.23221" fill="white"/>
<path id="Vector_22" d="M16.0949 6.73282C15.8821 6.37261 15.5546 5.9469 15.4728 5.80773C15.3827 5.66037 14.6541 4.58794 14.564 4.4897C14.2939 4.21136 14.6868 4.44877 14.5149 4.22773C14.3676 4.064 14.3266 4.01487 14.1957 3.91663C14.1302 3.8757 14.0974 3.80204 14.0728 3.93302C14.0728 4.04764 14.0565 4.1868 14.0647 4.28504C14.0647 4.34235 14.122 4.44058 14.1711 4.50607C14.8178 5.30835 15.5301 6.28257 16.0949 7.30589C16.1768 7.26495 16.1522 6.8065 16.0949 6.74101" fill="white"/>
<path id="Vector_23" d="M13.4916 10.9817C13.3033 11.0308 13.3115 11.2273 13.4343 11.3173C11.4286 11.3173 8.35047 11.2846 7.68736 11.2846C7.31896 11.2846 6.14828 11.2436 6.12372 11.2436C6.36932 11.612 6.73773 11.6857 7.21255 11.6939C8.10488 11.6939 12.2309 11.6857 13.4098 11.6857C13.3279 11.8331 13.4098 12.0705 13.4835 12.1114C13.5653 12.1278 13.5981 12.0705 13.6226 12.0377C13.7454 12.0459 14.4577 12.0541 14.5231 12.0377C14.5641 12.1032 14.6132 12.1605 14.6951 12.1523C14.8424 12.1196 14.957 12.1032 14.9652 11.8085C14.9652 11.8085 14.9488 11.3009 14.6214 11.3337C14.5395 11.3419 14.3185 11.3664 14.3185 11.3664C14.0647 11.3337 13.8764 11.3337 13.5899 11.3255C13.6144 11.2928 13.6636 11.1536 13.6063 11.1044C13.5899 11.0881 13.5735 11.0881 13.5408 11.0881C13.5244 11.0717 13.5162 11.0144 13.508 10.998M13.6472 11.7184C13.9419 11.7348 14.2121 11.7185 14.5068 11.7348C14.5559 11.7758 14.5313 11.8658 14.5068 11.8822C14.4085 11.8822 14.3594 11.8822 14.2612 11.8822C14.2612 11.8822 14.2612 11.874 14.2612 11.8658C14.2366 11.8003 14.0729 11.8085 14.0401 11.8658C14.0401 11.8658 14.0401 11.8658 14.0401 11.874V11.8904C13.9092 11.9067 13.7945 11.8904 13.6635 11.874C13.6308 11.8331 13.6308 11.743 13.6717 11.7266" fill="white"/>
<path id="Vector_24" d="M8.416 4.20317C8.21952 4.75986 8.53061 5.37387 8.74346 5.31656C8.899 5.37387 8.99725 5.07913 9.05455 4.75985C9.09549 4.6698 9.12823 4.66163 9.15279 4.70257C9.15279 5.12827 9.18552 5.2265 9.29195 5.35748C9.53754 5.54577 9.74221 5.38204 9.75859 5.35748C9.77496 5.34111 9.94689 5.16918 9.94689 5.16918C9.98782 5.12825 10.0451 5.12006 10.1024 5.16918C10.1597 5.2183 10.1515 5.31654 10.2743 5.37385C10.3808 5.41478 10.6018 5.39024 10.6509 5.292C10.7246 5.17739 10.7328 5.12827 10.7655 5.08734C10.8147 5.02184 10.8965 5.04639 10.8965 5.07095C10.8965 5.11188 10.8392 5.14464 10.872 5.21013C10.9293 5.25106 10.9456 5.2265 10.9784 5.21013C11.1012 5.15282 11.1994 4.88267 11.1994 4.88267C11.1994 4.78443 11.1503 4.79262 11.1094 4.809C11.0602 4.84174 11.0603 4.84992 11.0111 4.87448C10.9538 4.87448 10.831 4.92361 10.7737 4.83355C10.7164 4.72713 10.7164 4.57157 10.6673 4.46515C10.6673 4.46515 10.5854 4.29323 10.6673 4.28504C10.7001 4.28504 10.7819 4.3178 10.7983 4.24412C10.8392 4.17863 10.7164 3.99852 10.6346 3.90847C10.5609 3.8266 10.4626 3.81841 10.3644 3.90027C10.2989 3.95758 10.3071 4.03125 10.2907 4.09674C10.2743 4.17042 10.2825 4.26868 10.3562 4.36691C10.4217 4.4979 10.5445 4.67799 10.5036 4.9154C10.5036 4.9154 10.4299 5.03003 10.3071 5.01366C10.258 4.99729 10.1679 4.9809 10.127 4.64525C10.0942 4.39147 10.1352 4.03125 10.0288 3.86752C9.98782 3.76928 9.96325 3.66286 9.86502 3.84296C9.84046 3.90845 9.73402 4.0149 9.8077 4.21956C9.8732 4.35055 9.89776 4.57159 9.86502 4.809C9.82408 4.88268 9.8077 4.89903 9.75039 4.97271C9.66853 5.06276 9.57849 5.03821 9.513 5.00547C9.44751 4.96453 9.39837 4.93997 9.36562 4.8008C9.36562 4.57976 9.382 4.21954 9.34106 4.14586C9.28376 4.02306 9.18553 4.07219 9.14459 4.10494C8.93993 4.28504 8.84169 4.59613 8.78438 4.84172C8.72708 5.02183 8.66977 4.97272 8.62884 4.89904C8.5306 4.80898 8.52241 4.06401 8.39961 4.18681" fill="white"/>
<path id="Vector_25" d="M9.07107 5.35748C9.07107 5.35748 9.03833 5.39023 9.00559 5.41479C8.94828 5.48028 8.94008 5.52941 8.94008 5.6522C8.94008 5.66858 9.0465 5.96327 9.13655 6.16794C9.19385 6.38898 9.25118 6.62639 9.21025 6.8638C9.07108 7.17489 8.78454 7.44506 8.51439 7.59242C8.37521 7.63335 8.2524 7.62516 8.21966 7.59242C8.13779 7.53511 8.13779 7.44504 8.13779 7.42048C8.36701 7.25675 8.63718 7.12578 8.84184 6.69189C8.89915 6.52816 8.9237 6.42991 8.85821 6.16794C8.83365 6.07789 8.80091 5.99604 8.73541 5.93055C8.77635 5.91417 8.87459 5.98783 8.89096 5.93871C8.8664 5.81592 8.78454 5.6522 8.6863 5.57033C8.60443 5.49665 8.51439 5.48845 8.44071 5.55395C8.35884 5.60306 8.34246 5.77499 8.3752 5.92235C8.42432 6.02878 8.54712 6.05333 8.62899 6.27437C8.62899 6.27437 8.66174 6.44629 8.61262 6.51178C8.57987 6.6264 8.12141 6.98661 8.08867 7.00298C8.08867 6.9948 8.08867 6.97024 8.08867 6.92931C8.08867 6.86382 8.11323 6.70826 8.11323 6.6837C7.96587 6.78193 7.90856 7.08484 7.884 7.1749C7.49924 7.43687 7.06535 7.63336 6.81157 7.90351C6.68058 8.10818 7.71209 7.6661 7.83489 7.61698C7.85945 7.64154 7.85946 7.72339 7.92495 7.80525C8.03138 7.95261 8.2606 8.04266 8.48163 7.98536C8.85003 7.85437 9.07108 7.59242 9.28393 7.31408C9.31667 7.27315 9.36579 7.2322 9.40672 7.27313C9.55408 7.60878 9.98795 7.8462 10.5446 7.87076C10.6756 7.71521 10.6101 7.63334 10.561 7.60878C10.5447 7.59241 10.2827 7.49418 10.2417 7.38775C10.2172 7.2977 10.2745 7.21583 10.4055 7.15034C10.7657 7.1094 11.1177 7.06028 11.4616 6.94567C11.4616 6.83106 11.5352 6.65914 11.5762 6.58546C11.6089 6.53634 11.6253 6.52817 11.6335 6.51998C11.6335 6.51998 11.6335 6.51997 11.6335 6.51178L11.5762 6.47903H10.43C10.43 6.47903 10.4055 6.46266 10.3973 6.45447V6.43811C10.3973 6.42992 10.4137 6.42174 10.43 6.41355C10.7084 6.3808 11.1914 6.29894 11.2241 5.83231C11.2241 5.58671 11.1259 5.43116 10.823 5.39023C10.602 5.4066 10.4464 5.61946 10.471 5.85687C10.4628 5.91418 10.4955 6.04515 10.43 6.05334C10.0125 6.09427 9.54589 6.35625 9.52951 6.54454H9.52132H9.51315C9.51315 6.54454 9.44765 6.48722 9.45584 6.42991C9.43946 6.10245 9.33303 5.73407 9.1693 5.44754C9.112 5.39023 9.08744 5.36566 9.07107 5.35748ZM10.7411 5.775C10.7411 5.775 10.7984 5.775 10.8312 5.79956C10.8803 5.82412 10.9049 5.86505 10.9049 5.89779C10.9049 5.89779 10.9049 5.8978 10.9049 5.90599C10.8803 5.93055 10.8312 5.92235 10.7821 5.89779C10.7411 5.87323 10.7084 5.83229 10.7084 5.80773V5.79136C10.7084 5.79136 10.7248 5.78317 10.7329 5.78317M9.6687 6.7492H9.68506C9.81605 6.78195 10.0043 6.79012 10.1599 6.80649C10.2909 6.81468 10.3564 6.9211 10.2336 6.96204C10.1108 7.00297 9.99615 7.03571 9.99615 7.21582C10.0125 7.30587 10.0125 7.34681 9.99615 7.37136C9.96341 7.37136 9.92247 7.33863 9.88972 7.33044C9.81605 7.27314 9.60318 7.14214 9.57044 6.8638C9.57044 6.79831 9.61139 6.74919 9.69325 6.74101" fill="white"/>
<path id="Vector_26" d="M6.00097 4.21135C6.13195 4.26865 6.37756 4.2441 6.36937 4.03944C6.36937 4.02306 6.36937 3.95755 6.36937 3.94118C6.34481 3.87568 6.27112 3.89207 6.25475 3.95757C6.25475 3.97394 6.25474 4.01486 6.24655 4.02305C6.23837 4.03123 6.18925 4.02304 6.19744 3.96574C6.19744 3.94936 6.18106 3.9248 6.17288 3.91662C6.17288 3.91662 6.15652 3.90845 6.14015 3.90845C6.12378 3.90845 6.12378 3.90845 6.11559 3.93301C6.11559 3.94938 6.1074 3.96575 6.1074 3.98212C6.1074 4.00668 6.09921 4.01488 6.08284 4.01488C6.06646 4.01488 6.07465 4.01488 6.05828 4.01488C6.05828 4.00669 6.04189 3.9985 6.04189 3.98212C6.04189 3.96575 6.04189 3.94119 6.04189 3.93301C6.04189 3.92482 6.02554 3.91662 6.00916 3.91662C5.93548 3.91662 5.93549 3.9985 5.93549 4.03124C5.93549 4.03124 5.92729 4.18678 6.02553 4.22771" fill="white"/>
<path id="Vector_27" d="M9.87333 5.84868C10.0043 5.90598 10.3154 5.87324 10.2417 5.66857C10.2417 5.6522 10.2417 5.58671 10.2417 5.57034C10.2171 5.50484 10.1435 5.52121 10.1271 5.5867C10.1271 5.61126 10.1353 5.644 10.1189 5.66038C10.1107 5.66856 10.0616 5.66037 10.0698 5.60307C10.0698 5.58669 10.0534 5.56213 10.0452 5.55395C10.0452 5.55395 10.0289 5.54578 10.0125 5.54578C9.99611 5.54578 9.99611 5.54578 9.98793 5.57034C9.98793 5.58671 9.97973 5.60308 9.97973 5.61945C9.97973 5.64401 9.97155 5.65221 9.95517 5.65221C9.9388 5.65221 9.94699 5.65221 9.93062 5.65221C9.92243 5.64402 9.91425 5.63583 9.91425 5.61945C9.91425 5.60308 9.91424 5.57852 9.90606 5.57034C9.90606 5.56215 9.8897 5.55395 9.87333 5.55395C9.79965 5.55395 9.79965 5.63583 9.79965 5.66857C9.79965 5.66857 9.79964 5.81592 9.88969 5.86504" fill="white"/>
<path id="Vector_28" d="M12.1245 5.16916C12.2555 5.22647 12.5011 5.20191 12.4929 4.98906C12.4929 4.97269 12.4929 4.9072 12.4929 4.89082C12.4683 4.83352 12.3946 4.84172 12.3783 4.90721C12.3783 4.92359 12.3783 4.96451 12.3701 4.97269C12.3619 4.98907 12.321 4.97269 12.321 4.91538C12.321 4.89901 12.3046 4.87445 12.2964 4.86627C12.2964 4.86627 12.28 4.86627 12.2636 4.86627C12.2473 4.86627 12.2473 4.86628 12.2391 4.88265C12.2391 4.89903 12.2309 4.9154 12.2309 4.93177C12.2309 4.94815 12.2227 4.95631 12.2063 4.9645C12.19 4.9645 12.19 4.9645 12.1818 4.9645C12.1736 4.9645 12.1654 4.94815 12.1654 4.93177C12.1654 4.9154 12.1654 4.89083 12.1572 4.87446C12.1572 4.87446 12.1409 4.86628 12.1245 4.8581C12.0508 4.8581 12.0508 4.93995 12.0508 4.97269C12.0508 4.97269 12.0508 5.12823 12.1409 5.16916" fill="white"/>
<path id="Vector_29" d="M13.2871 6.872C13.0579 7.13397 13.1561 7.55965 13.2134 7.64971C13.2871 7.79706 13.3526 7.89531 13.5 7.96899C13.6392 8.06723 13.7374 8.00992 13.7947 7.93624C13.9257 7.79707 13.9339 7.43686 13.9912 7.37136C14.0403 7.24038 14.1467 7.26494 14.204 7.32225C14.2613 7.39593 14.3186 7.44506 14.4005 7.48599C14.5233 7.59241 14.6788 7.61698 14.8262 7.51874C14.9244 7.46144 14.9981 7.38774 15.0554 7.24038C15.1209 7.06027 15.0882 6.10246 15.0718 5.61945C15.0718 5.57852 14.9408 4.95633 14.9408 4.94815C14.9408 4.93996 14.9244 4.62886 14.9081 4.55518C14.9081 4.52244 14.8999 4.51426 14.9326 4.51426C14.9654 4.54701 14.9654 4.547 14.9899 4.55518C15.0227 4.55518 15.0554 4.50608 15.0309 4.44878C14.9244 4.26049 14.818 4.064 14.7198 3.87571C14.6952 3.84296 14.6625 3.8184 14.6215 3.87571C14.5806 3.90845 14.5397 3.96575 14.5479 4.04762C14.556 4.18679 14.5806 4.32597 14.5888 4.46514C14.6297 4.70255 14.6707 4.93176 14.7116 5.16917C14.7525 5.66856 14.7607 6.1352 14.8016 6.63458C14.8016 6.84743 14.728 7.13397 14.6625 7.15853C14.6625 7.15853 14.5724 7.21584 14.5069 7.15853C14.4578 7.14216 14.2777 6.84744 14.2777 6.84744C14.1794 6.75738 14.1222 6.78194 14.0567 6.84744C13.8684 7.02754 13.7865 7.35501 13.6637 7.59242C13.6309 7.64154 13.5409 7.69066 13.4345 7.59242C13.1725 7.2404 13.3281 6.741 13.2953 6.8638" fill="white"/>
<path id="Vector_30" d="M12.1818 3.9412C12.2964 3.99032 12.3865 4.22775 12.3538 4.34236C12.3292 4.48972 12.2719 4.64526 12.2228 4.6207C12.1736 4.60432 12.2555 4.47334 12.2064 4.34236C12.1818 4.2523 12.0181 4.10494 12.0345 4.05582C12.0017 3.95758 12.1 3.91666 12.1737 3.93303" fill="white"/>
<path id="Vector_31" d="M13.6718 7.01114C13.6964 6.72461 13.6555 6.54452 13.6473 6.38079C13.6473 6.21706 13.459 4.8417 13.4181 4.71072C13.3771 4.47331 13.5982 4.67798 13.5736 4.53881C13.4999 4.36689 13.3035 4.10492 13.2462 3.94937C13.2052 3.88388 13.2216 3.82658 13.1397 3.93301C13.066 4.17861 13.0415 4.37507 13.066 4.53061C13.2625 5.53756 13.459 6.46264 13.4263 7.42047C13.5163 7.42047 13.6227 7.21583 13.6718 7.00297" fill="white"/>
<path id="Vector_32" d="M15.6856 4.27683C15.792 4.33414 15.8575 4.62886 15.8493 4.71891C15.8247 4.87446 15.7756 5.04637 15.7265 5.02181C15.6856 5.00544 15.7347 4.78442 15.7101 4.72711C15.6856 4.63706 15.5382 4.46513 15.5546 4.41602C15.5219 4.30959 15.6201 4.26865 15.6856 4.28503" fill="white"/>
<path id="Vector_33" d="M7.68745 6.47085C7.78569 6.51178 7.85118 6.73281 7.8348 6.79011C7.81024 6.90472 7.76114 7.02751 7.7202 7.01114C7.67927 6.99477 7.72838 6.83923 7.70382 6.79011C7.70382 6.6755 7.55646 6.61001 7.55646 6.56089C7.5319 6.47084 7.61376 6.45447 7.67926 6.46266" fill="white"/>
<path id="Vector_34" d="M4.93661 3.8675C5.09215 3.90844 5.10033 4.13766 5.08396 4.20316C5.0594 4.31777 5.01027 4.44875 4.96933 4.43238C4.9284 4.41601 4.96933 4.26046 4.94477 4.20316C4.92022 4.12948 4.79741 4.00667 4.81379 3.96574C4.78104 3.88387 4.87111 3.85113 4.93661 3.8675Z" fill="white"/>
<path id="Vector_35" d="M7.93309 4.9154C7.81848 4.97271 7.76937 5.161 7.84305 5.27561C7.90854 5.36567 8.01497 5.33293 8.03135 5.33293C8.14596 5.3493 8.21145 5.12007 8.21145 5.12007C8.21145 5.12007 8.21145 5.05458 8.08046 5.17738C8.02316 5.19375 8.01497 5.1692 7.99859 5.13646C7.99041 5.07915 7.9904 5.02184 8.01496 4.95635C8.03952 4.89904 7.99041 4.87447 7.92492 4.9154" fill="white"/>
<path id="Vector_36" d="M8.80899 3.77748C8.75168 3.81841 8.63707 3.9412 8.62888 4.08038C8.62888 4.15405 8.61252 4.15406 8.66164 4.21136C8.70257 4.26867 8.73531 4.26048 8.80899 4.21136C8.84992 4.17862 8.86629 4.16225 8.88267 4.11313C8.89904 4.02308 8.79263 4.15406 8.77626 4.05582C8.7517 3.96576 8.82537 3.92484 8.89086 3.83479C8.89086 3.77748 8.89086 3.73654 8.80899 3.77748Z" fill="white"/>
<path id="Vector_37" d="M9.51297 3.90028C9.48841 3.95758 9.45567 4.25229 9.46386 4.25229C9.4393 4.34235 9.55389 4.37511 9.60301 4.26868C9.67669 4.06402 9.6767 3.97395 9.68488 3.89208C9.66033 3.7611 9.57028 3.7693 9.51297 3.90847" fill="white"/>
<path id="Vector_38" d="M13.9583 6.15977L14.5805 5.70949C14.6459 5.68493 14.6296 5.93054 14.605 5.93054C14.6132 5.97966 13.9992 6.39717 13.9583 6.38079C13.9255 6.39717 13.901 6.20889 13.9583 6.15977Z" fill="white"/>
<path id="Vector_39" d="M14.515 6.15975C14.6214 6.21706 14.6624 6.52814 14.6542 6.61001C14.6542 6.77374 14.5478 6.91291 14.5068 6.88835C14.4659 6.86379 14.5068 6.68368 14.4905 6.61001C14.4659 6.51995 14.3758 6.34805 14.3922 6.29074C14.3595 6.18432 14.4495 6.12699 14.515 6.14336" fill="white"/>
<path id="Vector_40" d="M10.8801 7.51872C10.921 7.46141 11.052 7.37134 11.052 7.37134C11.1175 7.3386 11.1748 7.3959 11.1666 7.3959C11.1748 7.45321 11.1257 7.51053 11.142 7.5924C11.1502 7.62514 11.1666 7.66606 11.2239 7.64968C11.3221 7.576 11.4122 7.56784 11.5104 7.56784C11.5841 7.56784 11.5841 7.69883 11.5432 7.69883C11.3631 7.73976 11.2812 7.78886 11.1584 7.83798C11.1011 7.87073 11.0438 7.82981 11.0438 7.82162C11.0438 7.82162 11.011 7.78886 11.0356 7.707C11.0356 7.6415 11.011 7.60876 10.9619 7.60876C10.921 7.63332 10.8883 7.64969 10.8637 7.60876C10.8637 7.57601 10.8555 7.55146 10.8801 7.53509" fill="white"/>
<path id="Vector_41" d="M15.1535 7.68246C15.1535 7.68246 15.1944 7.74797 15.1535 7.79709C15.1126 7.83802 15.0798 7.85439 15.0389 7.89532C15.0225 7.92807 15.0061 7.98537 15.0716 7.99356C15.1863 8.0263 15.4482 7.85439 15.4482 7.8462C15.4892 7.81346 15.481 7.75614 15.4728 7.75614C15.4482 7.72339 15.3909 7.73977 15.3582 7.73977C15.3418 7.73977 15.2845 7.72339 15.3091 7.68246C15.3336 7.64972 15.3418 7.62517 15.3582 7.59242C15.3746 7.55149 15.3582 7.52692 15.2927 7.50236C15.2272 7.48598 15.2026 7.50236 15.129 7.50236C15.088 7.51054 15.0798 7.5351 15.0716 7.57603C15.0716 7.64971 15.1208 7.64155 15.1617 7.67429" fill="white"/>
</g>
</g>
</g>
</g>
</g>
</g>
</g>
</g>
</svg>
