<!-- <svg width="21" height="16" viewBox="0 0 21 16" fill="none" xmlns="http://www.w3.org/2000/svg">
<g id="Flag">
<mask id="mask0_0_166" style="mask-type:alpha" maskUnits="userSpaceOnUse" x="0" y="0" width="21" height="16">
<path id="Rectangle 3" d="M0.5 2C0.5 0.895431 1.39543 0 2.5 0H18.5C19.6046 0 20.5 0.895431 20.5 2V14C20.5 15.1046 19.6046 16 18.5 16H2.5C1.39543 16 0.5 15.1046 0.5 14V2Z" fill="#23C16B"/>
</mask>
<g mask="url(#mask0_0_166)">
<g id="USA">
<g id="Clip path group">
<mask id="mask1_0_166" style="mask-type:luminance" maskUnits="userSpaceOnUse" x="0" y="0" width="26" height="16">
<g id="clippath-312">
<path id="Vector" d="M25.2151 0H0.5V16H25.2151V0Z" fill="white"/>
</g>
</mask>
<g mask="url(#mask1_0_166)">
<g id="Group">
<path id="Vector_2" d="M25.2151 14.7661H0.5V16H25.2151V14.7661Z" fill="#CB001C"/>
<path id="Vector_3" d="M25.2151 13.5322H0.5V14.7661H25.2151V13.5322Z" fill="white"/>
<path id="Vector_4" d="M25.2151 12.3064H0.5V13.5322H25.2151V12.3064Z" fill="#CB001C"/>
<path id="Vector_5" d="M25.2151 11.0725H0.5V12.3064H25.2151V11.0725Z" fill="white"/>
<path id="Vector_6" d="M25.2151 9.84679H0.5V11.0807H25.2151V9.84679Z" fill="#CB001C"/>
<path id="Vector_7" d="M25.2151 8.61288H0.5V9.83862H25.2151V8.61288Z" fill="white"/>
<path id="Vector_8" d="M25.2151 7.37897H0.5V8.61288H25.2151V7.37897Z" fill="#CB001C"/>
<path id="Vector_9" d="M25.2151 6.15323H0.5V7.37897H25.2151V6.15323Z" fill="white"/>
<path id="Vector_10" d="M25.2151 4.9193H0.5V6.15321H25.2151V4.9193Z" fill="#CB001C"/>
<path id="Vector_11" d="M25.2151 3.69356H0.5V4.92747H25.2151V3.69356Z" fill="white"/>
<path id="Vector_12" d="M25.2151 2.45967H0.5V3.69358H25.2151V2.45967Z" fill="#CB001C"/>
<path id="Vector_13" d="M25.2151 1.22574H0.5V2.45965H25.2151V1.22574Z" fill="white"/>
<path id="Vector_14" d="M25.2151 0H0.5V1.23391H25.2151V0Z" fill="#CB001C"/>
<path id="Vector_15" d="M11.7897 0H0.5V8.61287H11.7897V0Z" fill="#2A3560"/>
<path id="Vector_16" d="M1.52383 0.947891L1.61957 1.27476H1.92886L1.67849 1.47905L1.77424 1.79774L1.52383 1.60162L1.27346 1.79774L1.3692 1.47905L1.11879 1.27476H1.42808L1.52383 0.947891Z" fill="white"/>
<path id="Vector_17" d="M1.52383 2.38611L1.61957 2.71297H1.92886L1.67849 2.90909L1.77424 3.23595L1.52383 3.03984L1.27346 3.23595L1.3692 2.90909L1.11879 2.71297H1.42808L1.52383 2.38611Z" fill="white"/>
<path id="Vector_18" d="M1.52383 3.82431L1.61957 4.15118H1.92886L1.67849 4.34729L1.77424 4.67416L1.52383 4.47804L1.27346 4.67416L1.3692 4.34729L1.11879 4.15118H1.42808L1.52383 3.82431Z" fill="white"/>
<path id="Vector_19" d="M1.52383 5.26251L1.61957 5.58937H1.92886L1.67849 5.78549L1.77424 6.11236L1.52383 5.91624L1.27346 6.11236L1.3692 5.78549L1.11879 5.58937H1.42808L1.52383 5.26251Z" fill="white"/>
<path id="Vector_20" d="M1.52383 6.7007L1.61957 7.02756H1.92886L1.67849 7.22368L1.77424 7.55055L1.52383 7.35443L1.27346 7.55055L1.3692 7.22368L1.11879 7.02756H1.42808L1.52383 6.7007Z" fill="white"/>
<path id="Vector_21" d="M2.42951 1.70787L2.51793 2.03474H2.82722L2.57681 2.23085L2.67255 2.55772L2.42951 2.3616L2.17914 2.55772L2.26751 2.23085L2.02448 2.03474H2.33381L2.42951 1.70787Z" fill="white"/>
<path id="Vector_22" d="M2.42951 3.14607L2.51793 3.46476H2.82722L2.57681 3.66905L2.67255 3.99592L2.42951 3.7998L2.17914 3.99592L2.26751 3.66905L2.02448 3.46476H2.33381L2.42951 3.14607Z" fill="white"/>
<path id="Vector_23" d="M2.42951 4.58426L2.51793 4.91112H2.82722L2.57681 5.10724L2.67255 5.43411L2.42951 5.22982L2.17914 5.43411L2.26751 5.10724L2.02448 4.91112H2.33381L2.42951 4.58426Z" fill="white"/>
<path id="Vector_24" d="M2.42951 6.02248L2.51793 6.34934H2.82722L2.57681 6.54546L2.67255 6.87232L2.42951 6.66803L2.17914 6.87232L2.26751 6.54546L2.02448 6.34934H2.33381L2.42951 6.02248Z" fill="white"/>
<path id="Vector_25" d="M3.33542 0.947891L3.43854 1.27476H3.74046L3.49742 1.47905L3.59316 1.79774L3.33542 1.60162L3.09238 1.79774L3.18812 1.47905L2.93771 1.27476H3.24705L3.33542 0.947891Z" fill="white"/>
<path id="Vector_26" d="M3.33542 2.38611L3.43854 2.71297H3.74046L3.49742 2.90909L3.59316 3.23595L3.33542 3.03984L3.09238 3.23595L3.18812 2.90909L2.93771 2.71297H3.24705L3.33542 2.38611Z" fill="white"/>
<path id="Vector_27" d="M3.33542 3.82431L3.43854 4.15118H3.74046L3.49742 4.34729L3.59316 4.67416L3.33542 4.47804L3.09238 4.67416L3.18812 4.34729L2.93771 4.15118H3.24705L3.33542 3.82431Z" fill="white"/>
<path id="Vector_28" d="M3.33542 5.26251L3.43854 5.58937H3.74046L3.49742 5.78549L3.59316 6.11236L3.33542 5.91624L3.09238 6.11236L3.18812 5.78549L2.93771 5.58937H3.24705L3.33542 5.26251Z" fill="white"/>
<path id="Vector_29" d="M3.33542 6.7007L3.43854 7.02756H3.74046L3.49742 7.22368L3.59316 7.55055L3.33542 7.35443L3.09238 7.55055L3.18812 7.22368L2.93771 7.02756H3.24705L3.33542 6.7007Z" fill="white"/>
<path id="Vector_30" d="M4.24122 1.70787L4.33696 2.03474H4.64625L4.39589 2.23085L4.49163 2.55772L4.24122 2.3616L3.99085 2.55772L4.08655 2.23085L3.83618 2.03474H4.14548L4.24122 1.70787Z" fill="white"/>
<path id="Vector_31" d="M4.24122 3.14607L4.33696 3.46476H4.64625L4.39589 3.66905L4.49163 3.99592L4.24122 3.7998L3.99085 3.99592L4.08655 3.66905L3.83618 3.46476H4.14548L4.24122 3.14607Z" fill="white"/>
<path id="Vector_32" d="M4.24122 4.58426L4.33696 4.91112H4.64625L4.39589 5.10724L4.49163 5.43411L4.24122 5.22982L3.99085 5.43411L4.08655 5.10724L3.83618 4.91112H4.14548L4.24122 4.58426Z" fill="white"/>
<path id="Vector_33" d="M4.24122 6.02248L4.33696 6.34934H4.64625L4.39589 6.54546L4.49163 6.87232L4.24122 6.66803L3.99085 6.87232L4.08655 6.54546L3.83618 6.34934H4.14548L4.24122 6.02248Z" fill="white"/>
<path id="Vector_34" d="M5.15432 0.947891L5.25006 1.27476H5.55935L5.30899 1.47905L5.40473 1.79774L5.15432 1.60162L4.90395 1.79774L4.99969 1.47905L4.75665 1.27476H5.05858L5.15432 0.947891Z" fill="white"/>
<path id="Vector_35" d="M5.15432 2.38611L5.25006 2.71297H5.55935L5.30899 2.90909L5.40473 3.23595L5.15432 3.03984L4.90395 3.23595L4.99969 2.90909L4.75665 2.71297H5.05858L5.15432 2.38611Z" fill="white"/>
<path id="Vector_36" d="M5.15432 3.82431L5.25006 4.15118H5.55935L5.30899 4.34729L5.40473 4.67416L5.15432 4.47804L4.90395 4.67416L4.99969 4.34729L4.75665 4.15118H5.05858L5.15432 3.82431Z" fill="white"/>
<path id="Vector_37" d="M5.15432 5.26251L5.25006 5.58937H5.55935L5.30899 5.78549L5.40473 6.11236L5.15432 5.91624L4.90395 6.11236L4.99969 5.78549L4.75665 5.58937H5.05858L5.15432 5.26251Z" fill="white"/>
<path id="Vector_38" d="M5.15432 6.7007L5.25006 7.02756H5.55935L5.30899 7.22368L5.40473 7.55055L5.15432 7.35443L4.90395 7.55055L4.99969 7.22368L4.75665 7.02756H5.05858L5.15432 6.7007Z" fill="white"/>
<path id="Vector_39" d="M6.06019 1.70787L6.15593 2.03474H6.46522L6.21481 2.23085L6.31055 2.55772L6.06019 2.3616L5.80978 2.55772L5.90552 2.23085L5.65511 2.03474H5.96444L6.06019 1.70787Z" fill="white"/>
<path id="Vector_40" d="M6.06019 3.14607L6.15593 3.46476H6.46522L6.21481 3.66905L6.31055 3.99592L6.06019 3.7998L5.80978 3.99592L5.90552 3.66905L5.65511 3.46476H5.96444L6.06019 3.14607Z" fill="white"/>
<path id="Vector_41" d="M6.06019 4.58426L6.15593 4.91112H6.46522L6.21481 5.10724L6.31055 5.43411L6.06019 5.22982L5.80978 5.43411L5.90552 5.10724L5.65511 4.91112H5.96444L6.06019 4.58426Z" fill="white"/>
<path id="Vector_42" d="M6.06019 6.02248L6.15593 6.34934H6.46522L6.21481 6.54546L6.31055 6.87232L6.06019 6.66803L5.80978 6.87232L5.90552 6.54546L5.65511 6.34934H5.96444L6.06019 6.02248Z" fill="white"/>
<path id="Vector_43" d="M6.97338 0.947891L7.06912 1.27476H7.37842L7.128 1.47905L7.22375 1.79774L6.97338 1.60162L6.72297 1.79774L6.81871 1.47905L6.56834 1.27476H6.87764L6.97338 0.947891Z" fill="white"/>
<path id="Vector_44" d="M6.97338 2.38611L7.06912 2.71297H7.37842L7.128 2.90909L7.22375 3.23595L6.97338 3.03984L6.72297 3.23595L6.81871 2.90909L6.56834 2.71297H6.87764L6.97338 2.38611Z" fill="white"/>
<path id="Vector_45" d="M6.97338 3.82431L7.06912 4.15118H7.37842L7.128 4.34729L7.22375 4.67416L6.97338 4.47804L6.72297 4.67416L6.81871 4.34729L6.56834 4.15118H6.87764L6.97338 3.82431Z" fill="white"/>
<path id="Vector_46" d="M6.97338 5.26251L7.06912 5.58937H7.37842L7.128 5.78549L7.22375 6.11236L6.97338 5.91624L6.72297 6.11236L6.81871 5.78549L6.56834 5.58937H6.87764L6.97338 5.26251Z" fill="white"/>
<path id="Vector_47" d="M6.97338 6.7007L7.06912 7.02756H7.37842L7.128 7.22368L7.22375 7.55055L6.97338 7.35443L6.72297 7.55055L6.81871 7.22368L6.56834 7.02756H6.87764L6.97338 6.7007Z" fill="white"/>
<path id="Vector_48" d="M7.87171 1.70787L7.96745 2.03474H8.28412L8.03375 2.23085L8.12212 2.55772L7.87171 2.3616L7.62871 2.55772L7.72441 2.23085L7.47404 2.03474H7.78334L7.87171 1.70787Z" fill="white"/>
<path id="Vector_49" d="M7.87171 3.14607L7.96745 3.46476H8.28412L8.03375 3.66905L8.12212 3.99592L7.87171 3.7998L7.62871 3.99592L7.72441 3.66905L7.47404 3.46476H7.78334L7.87171 3.14607Z" fill="white"/>
<path id="Vector_50" d="M7.87171 4.58426L7.96745 4.91112H8.28412L8.03375 5.10724L8.12212 5.43411L7.87171 5.22982L7.62871 5.43411L7.72441 5.10724L7.47404 4.91112H7.78334L7.87171 4.58426Z" fill="white"/>
<path id="Vector_51" d="M7.87171 6.02248L7.96745 6.34934H8.28412L8.03375 6.54546L8.12212 6.87232L7.87171 6.66803L7.62871 6.87232L7.72441 6.54546L7.47404 6.34934H7.78334L7.87171 6.02248Z" fill="white"/>
<path id="Vector_52" d="M8.79232 0.947891L8.88806 1.27476H9.19735L8.94699 1.47905L9.03536 1.79774L8.79232 1.60162L8.54195 1.79774L8.63769 1.47905L8.38728 1.27476H8.69658L8.79232 0.947891Z" fill="white"/>
<path id="Vector_53" d="M8.79232 2.38611L8.88806 2.71297H9.19735L8.94699 2.90909L9.03536 3.23595L8.79232 3.03984L8.54195 3.23595L8.63769 2.90909L8.38728 2.71297H8.69658L8.79232 2.38611Z" fill="white"/>
<path id="Vector_54" d="M8.79232 3.82431L8.88806 4.15118H9.19735L8.94699 4.34729L9.03536 4.67416L8.79232 4.47804L8.54195 4.67416L8.63769 4.34729L8.38728 4.15118H8.69658L8.79232 3.82431Z" fill="white"/>
<path id="Vector_55" d="M8.79232 5.26251L8.88806 5.58937H9.19735L8.94699 5.78549L9.03536 6.11236L8.79232 5.91624L8.54195 6.11236L8.63769 5.78549L8.38728 5.58937H8.69658L8.79232 5.26251Z" fill="white"/>
<path id="Vector_56" d="M8.79232 6.7007L8.88806 7.02756H9.19735L8.94699 7.22368L9.03536 7.55055L8.79232 7.35443L8.54195 7.55055L8.63769 7.22368L8.38728 7.02756H8.69658L8.79232 6.7007Z" fill="white"/>
<path id="Vector_57" d="M9.69069 1.70787L9.78643 2.03474H10.0957L9.84532 2.23085L9.94106 2.55772L9.69069 2.3616L9.44028 2.55772L9.53602 2.23085L9.29298 2.03474H9.59495L9.69069 1.70787Z" fill="white"/>
<path id="Vector_58" d="M9.69069 3.14607L9.78643 3.46476H10.0957L9.84532 3.66905L9.94106 3.99592L9.69069 3.7998L9.44028 3.99592L9.53602 3.66905L9.29298 3.46476H9.59495L9.69069 3.14607Z" fill="white"/>
<path id="Vector_59" d="M9.69069 4.58426L9.78643 4.91112H10.0957L9.84532 5.10724L9.94106 5.43411L9.69069 5.22982L9.44028 5.43411L9.53602 5.10724L9.29298 4.91112H9.59495L9.69069 4.58426Z" fill="white"/>
<path id="Vector_60" d="M9.69069 6.02248L9.78643 6.34934H10.0957L9.84532 6.54546L9.94106 6.87232L9.69069 6.66803L9.44028 6.87232L9.53602 6.54546L9.29298 6.34934H9.59495L9.69069 6.02248Z" fill="white"/>
<path id="Vector_61" d="M10.604 0.947891L10.6998 1.27476H11.009L10.7587 1.47905L10.8544 1.79774L10.604 1.60162L10.361 1.79774L10.4493 1.47905L10.199 1.27476H10.5083L10.604 0.947891Z" fill="white"/>
<path id="Vector_62" d="M10.604 2.38611L10.6998 2.71297H11.009L10.7587 2.90909L10.8544 3.23595L10.604 3.03984L10.361 3.23595L10.4493 2.90909L10.199 2.71297H10.5083L10.604 2.38611Z" fill="white"/>
<path id="Vector_63" d="M10.604 3.82431L10.6998 4.15118H11.009L10.7587 4.34729L10.8544 4.67416L10.604 4.47804L10.361 4.67416L10.4493 4.34729L10.199 4.15118H10.5083L10.604 3.82431Z" fill="white"/>
<path id="Vector_64" d="M10.604 5.26251L10.6998 5.58937H11.009L10.7587 5.78549L10.8544 6.11236L10.604 5.91624L10.361 6.11236L10.4493 5.78549L10.199 5.58937H10.5083L10.604 5.26251Z" fill="white"/>
<path id="Vector_65" d="M10.604 6.7007L10.6998 7.02756H11.009L10.7587 7.22368L10.8544 7.55055L10.604 7.35443L10.361 7.55055L10.4493 7.22368L10.199 7.02756H10.5083L10.604 6.7007Z" fill="white"/>
</g>
</g>
</g>
</g>
<g id="AUSTRALIA">
<g id="Clip path group_2">
<mask id="mask2_0_166" style="mask-type:luminance" maskUnits="userSpaceOnUse" x="0" y="0" width="28" height="16">
<g id="clippath-313">
<path id="Vector_66" d="M27.5339 0H0.110001V16H27.5339V0Z" fill="white"/>
</g>
</mask>
<g mask="url(#mask2_0_166)">
<g id="Group_2">
<path id="Vector_67" d="M27.5339 0H0.110001V16H27.5339V0Z" fill="#180087"/>
<path id="Vector_68" d="M7.32537 9.79775L7.74213 11.097L9.0169 10.6149L8.26513 11.7508L9.43366 12.4453L8.07715 12.5679L8.26513 13.9162L7.32537 12.9275L6.38562 13.9162L6.5736 12.5679L5.21709 12.4453L6.38562 11.7508L5.63385 10.6149L6.90861 11.097L7.32537 9.79775Z" fill="white"/>
<path id="Vector_69" d="M18.1527 6.42288L18.3488 7.04392L18.9535 6.81512L18.594 7.35445L19.1497 7.68948L18.5041 7.73851L18.594 8.38407L18.1527 7.91012L17.7033 8.38407L17.7932 7.73851L17.1476 7.68948L17.7033 7.35445L17.3438 6.81512L17.9484 7.04392L18.1527 6.42288Z" fill="white"/>
<path id="Vector_70" d="M6.12434 0V2.40245H0.110001V4.81307H6.12434V7.21553H8.52679V4.81307H14.5411V2.40245H8.52679V0H6.12434Z" fill="white"/>
<path id="Vector_71" d="M0.110001 0V0.800817L12.9312 7.21553H14.5411V6.40654L1.72801 0H0.110001Z" fill="white"/>
<path id="Vector_72" d="M12.9312 0L0.110001 6.40654V7.21553H1.72801L14.5411 0.800817V0H12.9312Z" fill="white"/>
<path id="Vector_73" d="M6.60643 0V2.88457H0.110001V4.33095H6.60643V7.21553H8.04465V4.33095H14.5411V2.88457H8.04465V0H6.60643Z" fill="#EA0020"/>
<path id="Vector_74" d="M0.110001 0V0.539326L3.84443 2.41062H4.92309L0.110001 0.00817335V0ZM13.4624 0L8.65752 2.40245H9.73617L14.5411 0H13.4624Z" fill="#EA0020"/>
<path id="Vector_75" d="M4.92298 4.81308L0.109894 7.21553H1.18855L6.00164 4.81308H4.92298ZM9.73607 4.81308L14.5492 7.21553V6.6762L10.8147 4.8049H9.73607V4.81308Z" fill="#EA0020"/>
</g>
</g>
</g>
</g>
</g>
</g>
</svg> -->


<svg width="27" height="23" viewBox="0 0 21 16" fill="none" xmlns="http://www.w3.org/2000/svg">
<g id="Flag">
<path id="Rectangle 3" d="M0.5 2C0.5 0.895431 1.39543 0 2.5 0H18.5C19.6046 0 20.5 0.895431 20.5 2V14C20.5 15.1046 19.6046 16 18.5 16H2.5C1.39543 16 0.5 15.1046 0.5 14V2Z" fill="#23C16B"/>
<g id="USA">
<path id="Vector_15" d="M11.7897 0H0.5V8.61287H11.7897V0Z" fill="#2A3560"/>
<path id="Vector_16" d="M1.52383 0.947891L1.61957 1.27476H1.92886L1.67849 1.47905L1.77424 1.79774L1.52383 1.60162L1.27346 1.79774L1.3692 1.47905L1.11879 1.27476H1.42808L1.52383 0.947891Z" fill="white"/>
<path id="Vector_17" d="M1.52383 2.38611L1.61957 2.71297H1.92886L1.67849 2.90909L1.77424 3.23595L1.52383 3.03984L1.27346 3.23595L1.3692 2.90909L1.11879 2.71297H1.42808L1.52383 2.38611Z" fill="white"/>
<path id="Vector_18" d="M1.52383 3.82431L1.61957 4.15118H1.92886L1.67849 4.34729L1.77424 4.67416L1.52383 4.47804L1.27346 4.67416L1.3692 4.34729L1.11879 4.15118H1.42808L1.52383 3.82431Z" fill="white"/>
<path id="Vector_19" d="M1.52383 5.26251L1.61957 5.58937H1.92886L1.67849 5.78549L1.77424 6.11236L1.52383 5.91624L1.27346 6.11236L1.3692 5.78549L1.11879 5.58937H1.42808L1.52383 5.26251Z" fill="white"/>
<path id="Vector_20" d="M1.52383 6.7007L1.61957 7.02756H1.92886L1.67849 7.22368L1.77424 7.55055L1.52383 7.35443L1.27346 7.55055L1.3692 7.22368L1.11879 7.02756H1.42808L1.52383 6.7007Z" fill="white"/>
<path id="Vector_21" d="M2.42951 1.70787L2.51793 2.03474H2.82722L2.57681 2.23085L2.67255 2.55772L2.42951 2.3616L2.17914 2.55772L2.26751 2.23085L2.02448 2.03474H2.33381L2.42951 1.70787Z" fill="white"/>
<path id="Vector_22" d="M2.42951 3.14607L2.51793 3.46476H2.82722L2.57681 3.66905L2.67255 3.99592L2.42951 3.7998L2.17914 3.99592L2.26751 3.66905L2.02448 3.46476H2.33381L2.42951 3.14607Z" fill="white"/>
<path id="Vector_23" d="M2.42951 4.58426L2.51793 4.91112H2.82722L2.57681 5.10724L2.67255 5.43411L2.42951 5.22982L2.17914 5.43411L2.26751 5.10724L2.02448 4.91112H2.33381L2.42951 4.58426Z" fill="white"/>
<path id="Vector_24" d="M2.42951 6.02248L2.51793 6.34934H2.82722L2.57681 6.54546L2.67255 6.87232L2.42951 6.66803L2.17914 6.87232L2.26751 6.54546L2.02448 6.34934H2.33381L2.42951 6.02248Z" fill="white"/>
<path id="Vector_25" d="M3.33542 0.947891L3.43854 1.27476H3.74046L3.49742 1.47905L3.59316 1.79774L3.33542 1.60162L3.09238 1.79774L3.18812 1.47905L2.93771 1.27476H3.24705L3.33542 0.947891Z" fill="white"/>
<path id="Vector_26" d="M3.33542 2.38611L3.43854 2.71297H3.74046L3.49742 2.90909L3.59316 3.23595L3.33542 3.03984L3.09238 3.23595L3.18812 2.90909L2.93771 2.71297H3.24705L3.33542 2.38611Z" fill="white"/>
<path id="Vector_27" d="M3.33542 3.82431L3.43854 4.15118H3.74046L3.49742 4.34729L3.59316 4.67416L3.33542 4.47804L3.09238 4.67416L3.18812 4.34729L2.93771 4.15118H3.24705L3.33542 3.82431Z" fill="white"/>
<path id="Vector_28" d="M3.33542 5.26251L3.43854 5.58937H3.74046L3.49742 5.78549L3.59316 6.11236L3.33542 5.91624L3.09238 6.11236L3.18812 5.78549L2.93771 5.58937H3.24705L3.33542 5.26251Z" fill="white"/>
<path id="Vector_29" d="M3.33542 6.7007L3.43854 7.02756H3.74046L3.49742 7.22368L3.59316 7.55055L3.33542 7.35443L3.09238 7.55055L3.18812 7.22368L2.93771 7.02756H3.24705L3.33542 6.7007Z" fill="white"/>
<path id="Vector_30" d="M4.24122 1.70787L4.33696 2.03474H4.64625L4.39589 2.23085L4.49163 2.55772L4.24122 2.3616L3.99085 2.55772L4.08655 2.23085L3.83618 2.03474H4.14548L4.24122 1.70787Z" fill="white"/>
<path id="Vector_31" d="M4.24122 3.14607L4.33696 3.46476H4.64625L4.39589 3.66905L4.49163 3.99592L4.24122 3.7998L3.99085 3.99592L4.08655 3.66905L3.83618 3.46476H4.14548L4.24122 3.14607Z" fill="white"/>
<path id="Vector_32" d="M4.24122 4.58426L4.33696 4.91112H4.64625L4.39589 5.10724L4.49163 5.43411L4.24122 5.22982L3.99085 5.43411L4.08655 5.10724L3.83618 4.91112H4.14548L4.24122 4.58426Z" fill="white"/>
<path id="Vector_33" d="M4.24122 6.02248L4.33696 6.34934H4.64625L4.39589 6.54546L4.49163 6.87232L4.24122 6.66803L3.99085 6.87232L4.08655 6.54546L3.83618 6.34934H4.14548L4.24122 6.02248Z" fill="white"/>
<path id="Vector_34" d="M5.15432 0.947891L5.25006 1.27476H5.55935L5.30899 1.47905L5.40473 1.79774L5.15432 1.60162L4.90395 1.79774L4.99969 1.47905L4.75665 1.27476H5.05858L5.15432 0.947891Z" fill="white"/>
<path id="Vector_35" d="M5.15432 2.38611L5.25006 2.71297H5.55935L5.30899 2.90909L5.40473 3.23595L5.15432 3.03984L4.90395 3.23595L4.99969 2.90909L4.75665 2.71297H5.05858L5.15432 2.38611Z" fill="white"/>
<path id="Vector_36" d="M5.15432 3.82431L5.25006 4.15118H5.55935L5.30899 4.34729L5.40473 4.67416L5.15432 4.47804L4.90395 4.67416L4.99969 4.34729L4.75665 4.15118H5.05858L5.15432 3.82431Z" fill="white"/>
<path id="Vector_37" d="M5.15432 5.26251L5.25006 5.58937H5.55935L5.30899 5.78549L5.40473 6.11236L5.15432 5.91624L4.90395 6.11236L4.99969 5.78549L4.75665 5.58937H5.05858L5.15432 5.26251Z" fill="white"/>
<path id="Vector_38" d="M5.15432 6.7007L5.25006 7.02756H5.55935L5.30899 7.22368L5.40473 7.55055L5.15432 7.35443L4.90395 7.55055L4.99969 7.22368L4.75665 7.02756H5.05858L5.15432 6.7007Z" fill="white"/>
<path id="Vector_39" d="M6.06019 1.70787L6.15593 2.03474H6.46522L6.21481 2.23085L6.31055 2.55772L6.06019 2.3616L5.80978 2.55772L5.90552 2.23085L5.65511 2.03474H5.96444L6.06019 1.70787Z" fill="white"/>
<path id="Vector_40" d="M6.06019 3.14607L6.15593 3.46476H6.46522L6.21481 3.66905L6.31055 3.99592L6.06019 3.7998L5.80978 3.99592L5.90552 3.66905L5.65511 3.46476H5.96444L6.06019 3.14607Z" fill="white"/>
<path id="Vector_41" d="M6.06019 4.58426L6.15593 4.91112H6.46522L6.21481 5.10724L6.31055 5.43411L6.06019 5.22982L5.80978 5.43411L5.90552 5.10724L5.65511 4.91112H5.96444L6.06019 4.58426Z" fill="white"/>
<path id="Vector_42" d="M6.06019 6.02248L6.15593 6.34934H6.46522L6.21481 6.54546L6.31055 6.87232L6.06019 6.66803L5.80978 6.87232L5.90552 6.54546L5.65511 6.34934H5.96444L6.06019 6.02248Z" fill="white"/>
<path id="Vector_43" d="M6.97338 0.947891L7.06912 1.27476H7.37842L7.128 1.47905L7.22375 1.79774L6.97338 1.60162L6.72297 1.79774L6.81871 1.47905L6.56834 1.27476H6.87764L6.97338 0.947891Z" fill="white"/>
<path id="Vector_44" d="M6.97338 2.38611L7.06912 2.71297H7.37842L7.128 2.90909L7.22375 3.23595L6.97338 3.03984L6.72297 3.23595L6.81871 2.90909L6.56834 2.71297H6.87764L6.97338 2.38611Z" fill="white"/>
<path id="Vector_45" d="M6.97338 3.82431L7.06912 4.15118H7.37842L7.128 4.34729L7.22375 4.67416L6.97338 4.47804L6.72297 4.67416L6.81871 4.34729L6.56834 4.15118H6.87764L6.97338 3.82431Z" fill="white"/>
<path id="Vector_46" d="M6.97338 5.26251L7.06912 5.58937H7.37842L7.128 5.78549L7.22375 6.11236L6.97338 5.91624L6.72297 6.11236L6.81871 5.78549L6.56834 5.58937H6.87764L6.97338 5.26251Z" fill="white"/>
<path id="Vector_47" d="M6.97338 6.7007L7.06912 7.02756H7.37842L7.128 7.22368L7.22375 7.55055L6.97338 7.35443L6.72297 7.55055L6.81871 7.22368L6.56834 7.02756H6.87764L6.97338 6.7007Z" fill="white"/>
<path id="Vector_48" d="M7.87171 1.70787L7.96745 2.03474H8.28412L8.03375 2.23085L8.12212 2.55772L7.87171 2.3616L7.62871 2.55772L7.72441 2.23085L7.47404 2.03474H7.78334L7.87171 1.70787Z" fill="white"/>
<path id="Vector_49" d="M7.87171 3.14607L7.96745 3.46476H8.28412L8.03375 3.66905L8.12212 3.99592L7.87171 3.7998L7.62871 3.99592L7.72441 3.66905L7.47404 3.46476H7.78334L7.87171 3.14607Z" fill="white"/>
<path id="Vector_50" d="M7.87171 4.58426L7.96745 4.91112H8.28412L8.03375 5.10724L8.12212 5.43411L7.87171 5.22982L7.62871 5.43411L7.72441 5.10724L7.47404 4.91112H7.78334L7.87171 4.58426Z" fill="white"/>
<path id="Vector_51" d="M7.87171 6.02248L7.96745 6.34934H8.28412L8.03375 6.54546L8.12212 6.87232L7.87171 6.66803L7.62871 6.87232L7.72441 6.54546L7.47404 6.34934H7.78334L7.87171 6.02248Z" fill="white"/>
<path id="Vector_52" d="M8.79232 0.947891L8.88806 1.27476H9.19735L8.94699 1.47905L9.03536 1.79774L8.79232 1.60162L8.54195 1.79774L8.63769 1.47905L8.38728 1.27476H8.69658L8.79232 0.947891Z" fill="white"/>
<path id="Vector_53" d="M8.79232 2.38611L8.88806 2.71297H9.19735L8.94699 2.90909L9.03536 3.23595L8.79232 3.03984L8.54195 3.23595L8.63769 2.90909L8.38728 2.71297H8.69658L8.79232 2.38611Z" fill="white"/>
<path id="Vector_54" d="M8.79232 3.82431L8.88806 4.15118H9.19735L8.94699 4.34729L9.03536 4.67416L8.79232 4.47804L8.54195 4.67416L8.63769 4.34729L8.38728 4.15118H8.69658L8.79232 3.82431Z" fill="white"/>
<path id="Vector_55" d="M8.79232 5.26251L8.88806 5.58937H9.19735L8.94699 5.78549L9.03536 6.11236L8.79232 5.91624L8.54195 6.11236L8.63769 5.78549L8.38728 5.58937H8.69658L8.79232 5.26251Z" fill="white"/>
<path id="Vector_56" d="M8.79232 6.7007L8.88806 7.02756H9.19735L8.94699 7.22368L9.03536 7.55055L8.79232 7.35443L8.54195 7.55055L8.63769 7.22368L8.38728 7.02756H8.69658L8.79232 6.7007Z" fill="white"/>
<path id="Vector_57" d="M9.69069 1.70787L9.78643 2.03474H10.0957L9.84532 2.23085L9.94106 2.55772L9.69069 2.3616L9.44028 2.55772L9.53602 2.23085L9.29298 2.03474H9.59495L9.69069 1.70787Z" fill="white"/>
<path id="Vector_58" d="M9.69069 3.14607L9.78643 3.46476H10.0957L9.84532 3.66905L9.94106 3.99592L9.69069 3.7998L9.44028 3.99592L9.53602 3.66905L9.29298 3.46476H9.59495L9.69069 3.14607Z" fill="white"/>
<path id="Vector_59" d="M9.69069 4.58426L9.78643 4.91112H10.0957L9.84532 5.10724L9.94106 5.43411L9.69069 5.22982L9.44028 5.43411L9.53602 5.10724L9.29298 4.91112H9.59495L9.69069 4.58426Z" fill="white"/>
<path id="Vector_60" d="M9.69069 6.02248L9.78643 6.34934H10.0957L9.84532 6.54546L9.94106 6.87232L9.69069 6.66803L9.44028 6.87232L9.53602 6.54546L9.29298 6.34934H9.59495L9.69069 6.02248Z" fill="white"/>
<path id="Vector_61" d="M10.604 0.947891L10.6998 1.27476H11.009L10.7587 1.47905L10.8544 1.79774L10.604 1.60162L10.361 1.79774L10.4493 1.47905L10.199 1.27476H10.5083L10.604 0.947891Z" fill="white"/>
<path id="Vector_62" d="M10.604 2.38611L10.6998 2.71297H11.009L10.7587 2.90909L10.8544 3.23595L10.604 3.03984L10.361 3.23595L10.4493 2.90909L10.199 2.71297H10.5083L10.604 2.38611Z" fill="white"/>
<path id="Vector_63" d="M10.604 3.82431L10.6998 4.15118H11.009L10.7587 4.34729L10.8544 4.67416L10.604 4.47804L10.361 4.67416L10.4493 4.34729L10.199 4.15118H10.5083L10.604 3.82431Z" fill="white"/>
<path id="Vector_64" d="M10.604 5.26251L10.6998 5.58937H11.009L10.7587 5.78549L10.8544 6.11236L10.604 5.91624L10.361 6.11236L10.4493 5.78549L10.199 5.58937H10.5083L10.604 5.26251Z" fill="white"/>
<path id="Vector_65" d="M10.604 6.7007L10.6998 7.02756H11.009L10.7587 7.22368L10.8544 7.55055L10.604 7.35443L10.361 7.55055L10.4493 7.22368L10.199 7.02756H10.5083L10.604 6.7007Z" fill="white"/>
</g>
</g>
<g id="AUSTRALIA">
<path id="Vector_67" d="M27.5339 0H0.110001V16H27.5339V0Z" fill="#180087"/>
<path id="Vector_68" d="M7.32537 9.79775L7.74213 11.097L9.0169 10.6149L8.26513 11.7508L9.43366 12.4453L8.07715 12.5679L8.26513 13.9162L7.32537 12.9275L6.38562 13.9162L6.5736 12.5679L5.21709 12.4453L6.38562 11.7508L5.63385 10.6149L6.90861 11.097L7.32537 9.79775Z" fill="white"/>
<path id="Vector_69" d="M18.1527 6.42288L18.3488 7.04392L18.9535 6.81512L18.594 7.35445L19.1497 7.68948L18.5041 7.73851L18.594 8.38407L18.1527 7.91012L17.7033 8.38407L17.7932 7.73851L17.1476 7.68948L17.7033 7.35445L17.3438 6.81512L17.9484 7.04392L18.1527 6.42288Z" fill="white"/>
<path id="Vector_70" d="M6.12434 0V2.40245H0.110001V4.81307H6.12434V7.21553H8.52679V4.81307H14.5411V2.40245H8.52679V0H6.12434Z" fill="white"/>
<path id="Vector_71" d="M0.110001 0V0.800817L12.9312 7.21553H14.5411V6.40654L1.72801 0H0.110001Z" fill="white"/>
<path id="Vector_72" d="M12.9312 0L0.110001 6.40654V7.21553H1.72801L14.5411 0.800817V0H12.9312Z" fill="white"/>
<path id="Vector_73" d="M6.60643 0V2.88457H0.110001V4.33095H6.60643V7.21553H8.04465V4.33095H14.5411V2.88457H8.04465V0H6.60643Z" fill="#EA0020"/>
<path id="Vector_74" d="M0.110001 0V0.539326L3.84443 2.41062H4.92309L0.110001 0.00817335V0ZM13.4624 0L8.65752 2.40245H9.73617L14.5411 0H13.4624Z" fill="#EA0020"/>
<path id="Vector_75" d="M4.92298 4.81308L0.109894 7.21553H1.18855L6.00164 4.81308H4.92298ZM9.73607 4.81308L14.5492 7.21553V6.6762L10.8147 4.8049H9.73607V4.81308Z" fill="#EA0020"/>
</g>
</svg>
