
<svg width="27" height="23" rx="10" ry="10" viewBox="0 0 21 16" fill="#D3180C" xmlns="http://www.w3.org/2000/svg">
  <g id="Flag">
    <path id="Rectangle 3" opacity="1" d="M0.5 2C0.5 0.895431 1.39543 0 2.5 0H18.5C19.6046 0 20.5 0.895431 20.5 2V14C20.5 15.1046 19.6046 16 18.5 16H2.5C1.39543 16 0.5 15.1046 0.5 14V2Z" rx="10" ry="10" fill="#23C16B"/>
    <g id="MOROCCO">
      <g id="Clip path group">
        <g id="Group">
          <path id="Vector_2" d="M24.2118 0H-3.21204V16H24.2118V0Z" fill="#D3180C"/>
          <path id="Vector_3" d="M9.41319 6.72523H5.88306L9.90348 9.79776L10.5 9.34016L8.06487 7.46885H9.18438L9.41319 6.72523Z" fill="#007D71"/>
          <path id="Vector_4" d="M11.5948 6.72523L10.4998 3.19509L8.97174 8.16344L9.56827 8.62105L10.4998 5.6139L10.8512 6.72523H11.5948Z" fill="#007D71"/>
          <path id="Vector_5" d="M12.2732 8.90706L15.1251 6.72523H10.1568L9.92798 7.46885H12.9351L12.0363 8.16344L12.2732 8.90706Z" fill="#007D71"/>
          <path id="Vector_6" d="M10.5001 10.2635L13.3602 12.4372L11.8239 7.46885H11.0803L12.0119 10.4842L11.1048 9.79776L10.5001 10.2635Z" fill="#007D71"/>
          <path id="Vector_7" d="M8.73495 8.90706L7.64813 12.4372L11.6686 9.37282L11.4316 8.62104L8.99644 10.4842L9.33965 9.37282L8.73495 8.90706Z" fill="#007D71"/>
        </g>
      </g>
    </g>
    <g id="FRANCE">
      <g id="Clip path group_2">
        <g id="Group_2">
          <path id="Vector_9" d="M6.1872 -0.0518417H-2.98645V16H6.1872V-0.0518417Z" fill="#323E95"/>
          <path id="Vector_10" d="M15.3609 -0.0518417H6.18729V16H15.3609V-0.0518417Z" fill="#F4EFE9"/>
          <path id="Vector_11" d="M24.5349 -0.0518417H15.3612V16H24.5349V-0.0518417Z" fill="#D80031"/>
        </g>
      </g>
    </g>
  </g>
</svg>