<svg xmlns="http://www.w3.org/2000/svg" width="166" height="251" viewBox="0 0 166 251" fill="none">
  <path d="M165.697 122.365V158.738L146.306 201.075L165.697 243.314V250.269H159.435L92.6567 230.072L9.8571 250.269H0.307831V244.567L22.4014 198.363L0.307831 162.991V122.365C0.307831 90.8717 17.8627 63.4981 43.7001 49.4954C44.4488 38.7083 49.6542 10.482 82.9997 0.896912C82.9997 0.896912 113.889 7.75443 119.535 48.0417C127.7 52.074 135.105 57.4214 141.465 63.8063C141.849 64.1916 142.234 64.5768 142.608 64.9775C156.907 79.8534 165.697 100.072 165.697 122.365Z" fill="#B7AD7A"/>
  <path d="M38.1305 96.2447C33.2225 94.5598 28.8377 87.5482 27.8735 81.3482C27.4837 84.6871 26.9453 88.0568 25.6067 91.1388C24.2682 94.226 22.0475 97.0357 19.0217 98.4894C24.4323 100.256 28.8531 105.09 30.0429 110.663C30.4993 108.146 31.1763 105.475 32.1661 103.118C33.1559 100.76 36.0381 97.7086 38.1356 96.2447H38.1305Z" fill="#FAB76C"/>
  <path d="M91.113 24.6234C86.2051 22.9386 81.8202 15.9269 80.856 9.72693C80.4663 13.0658 79.9278 16.4355 78.5892 19.5175C77.2507 22.6047 75.0301 25.4145 72.0042 26.8682C77.4148 28.6352 81.8356 33.4688 83.0254 39.0422C83.4818 36.5252 84.1588 33.8541 85.1486 31.4963C86.1384 29.1386 89.0206 26.0874 91.1182 24.6234H91.113Z" fill="#FAB76C"/>
  <path d="M144.962 102.332C140.054 100.647 135.669 93.6352 134.705 87.4352C134.316 90.7741 133.777 94.1438 132.438 97.2258C131.1 100.313 128.879 103.123 125.853 104.576C131.264 106.343 135.685 111.177 136.875 116.75C137.331 114.233 138.008 111.562 138.998 109.205C139.988 106.847 142.87 103.796 144.967 102.332H144.962Z" fill="#FAB76C"/>
  <path d="M159.214 250.269H9.8212L9.66222 246.92L9.62632 246.15L9.61606 246.037L7.61082 204.208L7.5544 203.063L5.23119 154.68C19.632 125.128 54.4904 119.391 62.0498 118.487C62.9884 118.374 63.5115 118.338 63.5115 118.338L78.8405 119.247H78.8508L95.939 120.269C96.6775 120.259 97.4006 120.259 98.1288 120.279C130.946 120.86 154.224 142.701 154.224 142.701L159.158 249.016L159.214 250.274V250.269Z" fill="#F1DED9"/>
  <path d="M61.0908 87.9797L62.1165 120.644C62.1165 120.644 67.1578 128.483 81.8048 131.57C96.4415 134.657 98.3391 126.957 98.3391 126.957L97.8929 112.764L72.7633 95.8389L61.0908 87.9797Z" fill="#A75651"/>
  <path d="M70.3734 107.71C72.8248 113.812 77.4302 119.011 83.1792 122.195C87.7846 124.743 93.0516 125.611 98.2827 125.257L97.8878 112.764L72.7581 95.8389C71.3016 96.8765 70.117 98.2839 69.5631 99.9688C68.7374 102.491 69.3836 105.26 70.3683 107.71H70.3734Z" fill="#341C17"/>
  <path d="M55.7777 70.2118C56.0392 55.3102 67.6655 42.7252 82.4818 41.3332C99.6007 39.7202 114.273 52.8908 114.807 69.8419C114.832 70.5765 114.817 71.3008 114.786 72.025C115.279 77.8655 116.771 98.5048 113.719 103.015C111.196 106.749 102.073 113.37 96.9749 116.91C94.7081 118.482 91.8721 118.985 89.2104 118.266C82.3895 116.417 69.399 111.984 65.6808 104.356C61.5165 95.8183 59.2035 86.3976 58.4804 83.1769C56.67 79.2575 55.6905 74.8605 55.7726 70.2118H55.7777Z" fill="#A75651"/>
  <path d="M97.8211 93.3681C97.5801 93.3681 97.3595 93.214 97.2826 92.9777C97.1852 92.6798 97.3493 92.3613 97.6467 92.2637C99.3494 91.7089 100.288 89.8443 100.467 88.2468C100.662 86.4592 100.19 84.6973 99.6007 82.7402C98.5288 79.1908 97.3339 75.6208 96.0415 72.1329C95.9338 71.8401 96.0826 71.5114 96.3749 71.4035C96.6672 71.2956 96.9954 71.4446 97.1031 71.7374C98.4006 75.2458 99.6058 78.8363 100.683 82.4115C101.288 84.4148 101.811 86.377 101.591 88.3701C101.375 90.3374 100.175 92.6336 97.9955 93.3476C97.9391 93.3681 97.8775 93.3732 97.8211 93.3732V93.3681Z" fill="#341C17"/>
  <path d="M98.4878 98.2326C96.7903 98.2326 95.0928 97.8319 93.5696 97.082C93.2875 96.9433 93.1747 96.6042 93.3132 96.3217C93.4516 96.0392 93.7901 95.9262 94.0722 96.0649C95.4518 96.7481 97.0262 97.0614 98.5391 97.0974C98.8519 97.0974 99.1032 97.3491 99.1084 97.6624C99.1084 97.9758 98.8571 98.2326 98.5442 98.2326H98.4827H98.4878Z" fill="#341C17"/>
  <path d="M80.1586 68.9019C78.7431 69.3129 77.3738 69.996 76.6045 71.0593C75.8404 72.1226 75.8404 73.6123 76.8968 74.4701C77.9225 75.3074 79.5483 75.3434 80.9996 75.292C83.1023 75.215 85.4153 74.9838 86.8615 73.715C88.159 72.5747 88.6103 70.1861 87.0769 69.0612C85.405 67.8386 82.0202 68.3626 80.1586 68.9019Z" fill="#341C17"/>
  <path d="M105.663 67.8489C104.211 68.1057 102.775 68.64 101.903 69.6159C101.032 70.5919 100.873 72.0713 101.832 73.037C102.76 73.977 104.375 74.1876 105.827 74.2903C107.924 74.4393 110.247 74.4547 111.827 73.3452C113.243 72.3538 113.94 70.0269 112.535 68.7427C111.006 67.3455 107.581 67.5099 105.673 67.8489H105.663Z" fill="#341C17"/>
  <path d="M105.442 82.9354C105.545 84.3891 106.801 85.4884 108.258 85.3857C109.709 85.2829 110.806 84.0244 110.704 82.5656C110.601 81.1119 109.345 80.0127 107.888 80.1154C106.437 80.2181 105.339 81.4766 105.442 82.9354Z" fill="#341C17"/>
  <path d="M81.1176 83.706C81.2202 85.1596 82.4766 86.2589 83.9331 86.1562C85.3845 86.0534 86.482 84.7949 86.3794 83.3361C86.2769 81.8824 85.0204 80.7832 83.5639 80.8859C82.1125 80.9886 81.015 82.2471 81.1176 83.706Z" fill="#341C17"/>
  <path d="M51.1466 83.0895C49.0388 85.5346 48.8645 89.5721 49.9773 92.7055C51.839 97.9398 60.2343 103.744 65.0141 98.4381C67.0809 96.1419 68.2861 92.4486 67.6604 89.4026C66.5834 84.1683 59.6548 79.951 54.5109 81.1119C53.075 81.4355 51.9621 82.1444 51.1466 83.0947V83.0895Z" fill="#A75651"/>
  <path d="M61.1472 96.594C61.1729 96.594 61.1985 96.594 61.2241 96.5837C61.5062 96.5323 61.696 96.2601 61.6396 95.9776C61.0908 93.024 59.942 90.4505 58.3163 88.5396C56.388 86.2743 53.757 84.8925 51.0902 84.759C50.8082 84.7487 50.5569 84.9644 50.5415 85.2521C50.5261 85.5398 50.7466 85.7863 51.0338 85.8017C53.4134 85.925 55.7777 87.1681 57.5214 89.2176C59.0291 90.995 60.101 93.3989 60.6139 96.1728C60.66 96.4296 60.8908 96.6094 61.1421 96.5991L61.1472 96.594Z" fill="#341C17"/>
  <path d="M53.4852 95.8337C53.4852 95.8337 53.5263 95.8337 53.5519 95.8286C53.7314 95.7978 53.8853 95.6796 53.9519 95.5101C54.0699 95.2173 53.9878 94.8783 53.7519 94.6728C53.7006 94.6266 53.6442 94.5958 53.5827 94.5701C52.8903 93.3835 52.9826 91.7295 53.8596 90.6662C54.8443 89.4745 56.7418 89.1149 58.0906 89.8649C58.3419 90.0036 58.6599 89.9162 58.7984 89.6645C58.9368 89.4128 58.8496 89.0944 58.5983 88.9557C56.8034 87.954 54.3725 88.4163 53.0596 89.9984C51.7518 91.5857 51.7569 94.0616 53.075 95.6437C53.1775 95.767 53.3314 95.8337 53.4904 95.8286L53.4852 95.8337Z" fill="#341C17"/>
  <path d="M51.1466 83.0895C51.1466 83.0895 51.2646 82.9457 51.4851 82.7351C52.6954 81.6153 57.0598 78.6976 63.4089 87.014C63.4089 87.014 68.1835 82.3755 66.8809 72.0816C65.5782 61.7876 60.5113 53.5226 60.5113 53.5226L50.6697 62.2242L51.1415 83.0895H51.1466Z" fill="#341C17"/>
  <path d="M50.3876 77.1566C50.3876 77.1566 61.1011 62.6557 84.8409 60.0462C108.581 57.4368 115.53 62.368 115.53 62.368C115.53 62.368 109.883 28.2962 82.2356 30.9056C54.5879 33.5151 43.1513 48.8841 50.3876 77.1566Z" fill="#F1DED9"/>
  <path d="M139.941 155.26L87.5641 183.199L45.2335 180.985L12.9291 166.515L13.124 165.503L15.8882 160.3L16.1959 159.709H16.2062L17.0883 158.039L17.4062 157.438L18.3499 155.666L18.6576 155.086L19.7448 153.041C19.7448 153.041 63.2858 147.817 78.5379 164.707C78.5379 164.707 97.3954 145.013 134.521 147.011L134.987 147.715L135.351 148.269L136.269 149.667L136.634 150.221L137.439 151.439L137.793 151.983L139.947 155.255L139.941 155.26Z" fill="white"/>
  <path d="M137.787 151.993C96.1184 154.469 79.1534 167.573 78.9841 167.712C78.9277 167.748 78.8713 167.768 78.8046 167.768C78.7687 167.768 78.738 167.758 78.7021 167.748C53.9724 158.173 25.6221 159.478 15.8933 160.31L16.2011 159.719H16.2113C26.2939 158.877 54.2648 157.721 78.7585 167.167C78.9636 167.018 79.3842 166.726 80.0406 166.294C80.0509 166.294 80.0611 166.284 80.0765 166.284C82.9126 164.455 90.0309 160.469 102.344 157.027C111.232 154.541 122.812 152.338 137.439 151.449L137.793 151.993H137.787Z" fill="#341C17"/>
  <path d="M135.351 148.28C135.351 148.28 135.331 148.29 135.316 148.29C103.534 148.485 78.9277 165.94 78.6764 166.119C78.6303 166.155 78.5739 166.176 78.5174 166.176C78.5072 166.176 78.4815 166.176 78.4713 166.166C78.4508 166.155 78.4149 166.145 78.379 166.13C78.379 166.13 78.3687 166.119 78.3585 166.119C61.7832 154.639 28.0787 155.24 18.3499 155.671L18.6576 155.091C28.8274 154.659 61.937 154.218 78.5174 165.539C80.7073 164.019 104.55 148.013 134.987 147.72L135.351 148.275V148.28Z" fill="#341C17"/>
  <path d="M136.634 150.232C124.884 150.427 112.571 153.535 102.344 157.022C91.5131 160.69 83.0459 164.779 80.0765 166.279C80.0662 166.279 80.056 166.289 80.0406 166.289C79.3585 166.643 78.9739 166.833 78.9431 166.859C78.9072 166.88 78.8508 166.895 78.8046 166.895C78.7687 166.895 78.7277 166.895 78.6918 166.875C78.5533 166.818 64.9577 160.824 46.49 158.348C34.2893 156.714 23.2322 157.392 17.0985 158.055L17.4165 157.454C23.663 156.796 34.5611 156.17 46.5669 157.783C63.0089 159.986 75.6198 164.984 78.3636 166.13C78.3738 166.13 78.3841 166.14 78.3841 166.14C78.42 166.15 78.4508 166.161 78.4764 166.176C78.6149 166.232 78.7123 166.279 78.7944 166.315C80.9278 165.2 109.955 150.257 136.275 149.687L136.639 150.242L136.634 150.232Z" fill="#341C17"/>
  <path d="M8.91858 162.395L19.4525 240.17L80.5483 241.979L88.677 241.074L145.26 228.412L142.552 152.142C142.552 152.142 97.1031 154.552 84.1639 165.405L73.9326 167.517C73.9326 167.517 46.4438 152.245 8.92371 162.39L8.91858 162.395Z" fill="#341C17"/>
  <g opacity="0.33">
    <path d="M8.91858 162.395L19.4525 240.17L80.5483 241.979L88.677 241.074L145.26 228.412L142.552 152.142C142.552 152.142 97.1031 154.552 84.1639 165.405L73.9326 167.517C73.9326 167.517 46.4438 152.245 8.92371 162.39L8.91858 162.395Z" fill="#B7AD7A"/>
  </g>
  <path d="M73.6283 167.296L73.0403 167.342L78.8644 241.297L79.4523 241.25L73.6283 167.296Z" fill="#FAB76C"/>
  <path d="M84.4639 165.383L83.8758 165.427L89.4994 240.69L90.0876 240.646L84.4639 165.383Z" fill="#FAB76C"/>
  <path d="M75.066 231.233L74.5223 225.567L74.4762 225.079C74.3736 225.115 74.2813 225.135 74.1685 225.171C74.0915 225.207 73.989 225.238 73.8967 225.274L73.9531 225.762L74.4762 231.371L74.5223 231.803L75.1019 231.608L75.066 231.233ZM43.8129 238.152L43.7565 238.753H44.1514C44.3309 238.573 44.5155 238.378 44.695 238.172L43.8129 238.152ZM75.2096 232.804L75.0967 231.613L75.0608 231.238L74.5172 225.572L74.4711 225.084L74.4044 224.36L70.3888 182.316L69.199 169.916L69.1784 169.7L68.9733 169.654C50.7159 165.226 37.8792 163.602 29.012 163.284C21.0731 163.001 16.3139 163.762 13.6932 164.465H13.683C11.8675 164.953 11.0725 165.411 10.9597 165.477L10.8007 165.58L13.4419 185.423L14.4266 192.83L15.9241 204.049L16.0626 205.092L16.0831 205.205L20.4833 238.162L27.376 238.342L28.012 238.352L28.5094 238.362L43.7513 238.758H44.1462L45.0078 238.778L45.7925 238.799L52.4031 238.968L69.0605 239.4H69.0964L74.0505 239.523L75.5224 239.559L75.8506 239.569L75.2044 232.799L75.2096 232.804ZM74.2557 238.948L71.7478 238.881H71.7376L53.5058 238.403L46.3977 238.224L45.5925 238.213H45.5822L44.7001 238.177L43.818 238.157L28.5453 237.772L28.0581 237.761L27.4222 237.741L21.0167 237.582L16.7088 205.272L16.6883 205.133L16.5498 204.111L15.0215 192.651L13.9445 184.54L11.4521 165.893C11.7239 165.77 12.2931 165.508 13.2881 165.236H13.2983C15.6574 164.543 20.3295 163.69 28.4582 163.906C37.2894 164.168 50.1927 165.714 68.6451 170.172L69.8041 182.28L73.8402 224.55L73.9069 225.264V225.274L73.9633 225.762L74.4864 231.371L74.5326 231.803L74.6454 232.984L75.2249 238.968L74.271 238.948H74.2557ZM43.8078 238.152L43.7513 238.753H44.1462C44.3257 238.573 44.5104 238.378 44.6899 238.172L43.8078 238.152ZM75.0608 231.233L74.5172 225.567L74.4711 225.079C74.3685 225.115 74.2762 225.135 74.1633 225.171C74.0864 225.207 73.9838 225.238 73.8915 225.274L73.9479 225.762L74.4711 231.371L74.5172 231.803L75.0967 231.608L75.0608 231.233ZM43.8078 238.152L43.7513 238.753H44.1462C44.3257 238.573 44.5104 238.378 44.6899 238.172L43.8078 238.152ZM75.0608 231.233L74.5172 225.567L74.4711 225.079C74.3685 225.115 74.2762 225.135 74.1633 225.171C74.0864 225.207 73.9838 225.238 73.8915 225.274L73.9479 225.762L74.4711 231.371L74.5172 231.803L75.0967 231.608L75.0608 231.233Z" fill="#FAB76C"/>
  <path d="M91.7541 227.216L91.6874 226.363L91.6105 225.217L91.5746 224.776L91.5182 224.072L91.4823 223.594C91.4464 223.764 91.4054 223.949 91.3336 224.118C91.2977 224.221 91.2566 224.324 91.2105 224.411C91.1643 224.55 91.0976 224.673 91.0053 224.806V224.827C91.0053 224.827 91.0053 224.837 90.9951 224.848L91.0053 224.914V224.925L91.0412 225.366L91.1541 226.841L91.1643 227.103L91.1848 227.365C91.3797 227.354 91.5695 227.365 91.7644 227.401L91.7541 227.205V227.216ZM142.824 210.691V210.614L142.778 209.443L140.988 155.255C140.977 155.178 140.952 155.106 140.895 155.04C140.829 154.993 140.772 154.983 140.69 154.973C140.654 154.973 140.336 154.983 139.772 155.009C134.659 155.302 109.068 157.13 86.8307 166.012C86.7179 166.048 86.6359 166.171 86.6512 166.284L87.8975 183.035L90.754 221.581V221.591L90.9335 223.99L90.9438 224.226L90.9899 224.853L91.0002 224.919V224.93L91.0361 225.372L91.1489 226.846L91.1592 227.108L91.1797 227.37L91.2566 228.325L91.6208 233.297L91.6669 233.991L91.7233 234.695L91.9849 238.285C91.9849 238.362 92.0413 238.444 92.0977 238.501C92.1439 238.537 92.2105 238.557 92.2772 238.557C92.2875 238.557 92.3234 238.547 92.3439 238.547L143.121 227.385C143.26 227.365 143.357 227.246 143.357 227.103L142.813 210.691H142.824ZM92.5439 237.915L92.2721 234.304L92.2259 233.565L92.1695 232.897L91.8413 228.443H91.831L91.7644 227.411L91.7541 227.216L91.6874 226.363L91.6105 225.217L91.5746 224.776L91.5182 224.072L91.4823 223.594L91.4054 222.469V222.459L91.3848 222.264V222.254L88.4616 182.742V182.732L87.2461 166.469C108.642 157.973 133.1 156.021 139.249 155.635H139.27C139.803 155.615 140.177 155.589 140.429 155.579L142.219 209.617L142.254 210.788V210.855L142.788 226.882L92.5541 237.921L92.5439 237.915ZM91.749 227.216L91.6823 226.363L91.6054 225.217L91.5695 224.776L91.5131 224.072L91.4772 223.594C91.4413 223.764 91.4002 223.949 91.3284 224.118C91.2925 224.221 91.2515 224.324 91.2053 224.411C91.1592 224.55 91.0925 224.673 91.0002 224.806V224.827C91.0002 224.827 91.0002 224.837 90.9899 224.848L91.0002 224.914V224.925L91.0361 225.366L91.1489 226.841L91.1592 227.103L91.1797 227.365C91.3746 227.354 91.5643 227.365 91.7592 227.401L91.749 227.205V227.216ZM91.749 227.216L91.6823 226.363L91.6054 225.217L91.5695 224.776L91.5131 224.072L91.4772 223.594C91.4413 223.764 91.4002 223.949 91.3284 224.118C91.2925 224.221 91.2515 224.324 91.2053 224.411C91.1592 224.55 91.0925 224.673 91.0002 224.806V224.827C91.0002 224.827 91.0002 224.837 90.9899 224.848L91.0002 224.914V224.925L91.0361 225.366L91.1489 226.841L91.1592 227.103L91.1797 227.365C91.3746 227.354 91.5643 227.365 91.7592 227.401L91.749 227.205V227.216Z" fill="#FAB76C"/>
  <path d="M96.2108 178.591L95.6877 178.874L99.2263 221.863L99.7699 221.704L96.2108 178.591ZM96.2108 178.591L95.6877 178.874L99.2263 221.863L99.7699 221.704L96.2108 178.591ZM96.2108 178.591L95.6877 178.874L99.2263 221.863L99.7699 221.704L96.2108 178.591ZM96.2108 178.591L95.6877 178.874L99.2263 221.863L99.7699 221.704L96.2108 178.591ZM96.2108 178.591L95.6877 178.874L99.2263 221.863L99.7699 221.704L96.2108 178.591ZM135.557 212.684V212.674L135.5 211.513L133.223 165.801C133.213 165.724 133.177 165.652 133.121 165.606C133.064 165.549 132.997 165.539 132.915 165.539C132.803 165.549 125.556 166.253 115.771 168.164H115.75C109.606 169.356 102.462 171.025 95.4415 173.275C95.3184 173.311 95.2363 173.424 95.2466 173.557L95.6877 178.874L99.2263 221.863L99.293 222.649L99.3289 223.014L99.5904 226.204C99.6007 226.281 99.6366 226.353 99.7033 226.399C99.7494 226.435 99.8058 226.455 99.8623 226.455H99.9187L135.659 219.29C135.798 219.269 135.885 219.141 135.875 219.007L135.557 212.694V212.684ZM100.108 225.849L99.8571 222.865L99.8366 222.5L99.7699 221.704L96.2108 178.591L95.8159 173.732C102.073 171.734 108.427 170.198 114.073 169.063H114.084C123.633 167.121 131.151 166.279 132.68 166.119L134.957 211.672L135.023 212.817V212.828L135.316 218.791L100.108 225.844V225.849ZM96.2056 178.591L95.6825 178.874L99.2212 221.863L99.7648 221.704L96.2056 178.591ZM96.2056 178.591L95.6825 178.874L99.2212 221.863L99.7648 221.704L96.2056 178.591ZM96.2056 178.591L95.6825 178.874L99.2212 221.863L99.7648 221.704L96.2056 178.591ZM96.2056 178.591L95.6825 178.874L99.2212 221.863L99.7648 221.704L96.2056 178.591Z" fill="#341C17"/>
  <path d="M129.279 192.64C129.279 192.604 129.269 192.584 129.243 192.563C126.818 188.952 123.166 188.952 122.202 189.019C121.171 184.735 118.299 183.6 116.894 183.281C116.689 183.245 116.54 183.225 116.407 183.214C116.397 183.204 116.386 183.194 116.371 183.194C116.325 183.137 116.248 183.101 116.176 183.137C116.176 183.137 115.904 183.158 115.494 183.297C114.155 183.692 111.289 185.059 110.606 189.45C109.642 189.44 105.991 189.769 103.883 193.56C103.873 193.596 103.862 193.627 103.847 193.663C103.847 193.699 103.303 198.137 106.488 199.626C106.293 200.51 105.693 203.808 107.463 205.76C107.565 205.837 109.822 207.84 113.678 206.884C113.95 207.542 114.878 209.381 116.909 210.064C116.966 210.085 117.022 210.085 117.079 210.11C117.125 210.187 117.191 210.223 117.284 210.223C117.304 210.213 117.34 210.213 117.361 210.203C117.54 210.136 117.735 210.064 117.894 209.977C119.663 209.078 120.376 207.306 120.592 206.658C124.515 207.285 126.592 205.102 126.695 204.989C128.284 202.924 127.423 199.683 127.146 198.82C130.187 197.073 129.279 192.687 129.264 192.64H129.279ZM126.715 198.465C126.602 198.522 126.546 198.645 126.577 198.784C126.597 198.82 127.915 202.544 126.305 204.645C126.295 204.665 124.228 206.792 120.453 206.109C120.315 206.073 120.192 206.165 120.145 206.304C120.145 206.325 119.51 208.77 117.356 209.653C117.345 209.653 117.335 209.643 117.32 209.643C114.971 209.006 114.099 206.52 114.089 206.484C114.053 206.381 113.95 206.314 113.837 206.325H113.771C110.063 207.336 107.842 205.379 107.842 205.379C106.037 203.402 107.037 199.575 107.047 199.529C107.083 199.416 107.027 199.277 106.899 199.236C104.016 198.065 104.314 194.238 104.37 193.76C106.637 189.718 110.642 189.954 110.812 189.969C110.924 189.98 111.073 189.892 111.083 189.743C111.765 184.781 115.222 183.836 116.063 183.667C116.099 183.687 116.14 183.713 116.186 183.723C116.909 183.78 120.617 184.324 121.74 189.358C121.761 189.507 121.889 189.584 122.022 189.563C122.192 189.527 126.161 188.962 128.772 192.8C128.849 193.277 129.464 197.048 126.71 198.465H126.715Z" fill="#FAB76C"/>
  <path d="M119.027 179.603C118.981 179.501 118.053 176.876 115.843 176.069C115.776 176.049 115.673 176.059 115.607 176.105C115.53 176.162 113.725 177.466 112.94 179.639C112.919 179.686 112.919 179.732 112.919 179.778C112.93 179.855 113.237 181.935 115.504 183.297C115.684 183.41 115.889 183.512 116.104 183.615C116.14 183.636 116.181 183.651 116.227 183.651C116.248 183.651 116.273 183.651 116.304 183.641C116.34 183.631 116.566 183.528 116.894 183.286C117.55 182.834 118.607 181.797 119.038 179.752C119.038 179.706 119.038 179.65 119.027 179.603ZM116.217 183.101C113.971 181.966 113.519 180.117 113.453 179.752C114.089 178.073 115.417 176.922 115.802 176.619C117.504 177.323 118.366 179.321 118.509 179.721C118.002 182.059 116.607 182.901 116.217 183.107V183.101Z" fill="#FAB76C"/>
  <path d="M117.904 209.972C117.766 209.895 117.622 209.833 117.474 209.776C117.381 209.756 117.294 209.766 117.222 209.812C117.212 209.823 117.099 209.915 116.915 210.064C116.361 210.542 115.155 211.687 114.545 213.346C114.535 213.393 114.535 213.439 114.535 213.47C114.555 213.562 114.827 215.468 116.868 216.829C117.12 217.009 117.402 217.168 117.72 217.317C117.756 217.338 117.797 217.353 117.833 217.353C117.868 217.353 117.899 217.353 117.925 217.343C117.971 217.322 118.74 217.004 119.489 216.084C119.956 215.494 120.407 214.641 120.658 213.459C120.669 213.413 120.669 213.367 120.658 213.31C120.612 213.208 119.797 210.937 117.904 209.972ZM118.458 216.377C118.186 216.613 117.961 216.742 117.833 216.798C117.73 216.742 117.627 216.696 117.54 216.639C115.555 215.504 115.145 213.809 115.068 213.459C115.694 211.78 117.032 210.629 117.417 210.326C119.13 211.03 119.981 213.028 120.125 213.429C119.771 215.021 119.027 215.915 118.458 216.382V216.377Z" fill="#FAB76C"/>
  <path d="M117.381 190.801C115.648 190.745 114.027 191.382 112.791 192.563C111.535 193.755 110.827 195.358 110.786 197.084C110.74 198.799 111.365 200.433 112.545 201.696C113.735 202.934 115.335 203.648 117.058 203.695H117.386C118.986 203.648 120.494 203.037 121.663 201.922C122.899 200.741 123.612 199.138 123.658 197.412C123.751 193.858 120.935 190.884 117.386 190.801H117.381ZM117.063 203.171C115.473 203.124 114.012 202.477 112.925 201.332C111.837 200.186 111.258 198.676 111.294 197.094C111.386 193.935 113.945 191.402 117.063 191.325L117.371 191.315C120.535 191.408 123.064 193.96 123.13 197.094C123.141 197.197 123.13 197.299 123.13 197.402C123.053 200.674 120.34 203.253 117.063 203.171Z" fill="#FAB76C"/>
  <path d="M117.361 191.824C114.381 191.747 111.873 194.12 111.807 197.104C111.73 200.089 114.099 202.6 117.089 202.683L117.361 202.672C120.217 202.606 122.556 200.289 122.643 197.392C122.71 194.392 120.351 191.896 117.361 191.829V191.824ZM117.089 202.41C114.243 202.344 111.986 199.955 112.053 197.12C112.13 194.361 114.355 192.158 117.073 192.091L117.356 192.08C120.192 192.157 122.448 194.546 122.366 197.387C122.299 200.238 119.94 202.498 117.084 202.416L117.089 202.41Z" fill="#FAB76C"/>
  <path d="M94.1388 224.272L94.1286 224.103V224.067L94.0722 223.343V223.332L93.8927 220.856C93.8465 221.093 93.7696 221.344 93.6568 221.596C93.6106 221.709 93.5439 221.822 93.4619 221.95V221.971C93.4619 221.971 93.4619 221.981 93.4516 221.992L93.4619 222.048L93.5747 223.481L93.5952 223.774L93.6055 224.01L93.626 224.205V224.252C93.7952 224.241 93.9645 224.252 94.1388 224.272ZM140.049 211.451V211.405L140.013 210.234L138.336 159.488C138.326 159.421 138.3 159.365 138.259 159.308C138.203 159.262 138.146 159.252 138.064 159.241C138.044 159.241 137.757 159.252 137.249 159.277C136.218 159.334 134.264 159.457 131.623 159.709H131.613C122.484 160.592 105.191 162.971 89.713 169.145C89.6001 169.181 89.5437 169.294 89.554 169.407L90.4617 181.663L90.6669 184.432L93.2414 219.048V219.058L93.3901 221.206L93.4465 221.992L93.4567 222.048L93.5696 223.481L93.5901 223.774L93.6003 224.01L93.6209 224.205V224.252L93.6568 224.627V224.637L93.6927 225.115L94.0209 229.578L94.067 230.19L94.1029 230.827L94.3542 234.053C94.3542 234.119 94.4004 234.191 94.4466 234.232C94.4927 234.268 94.5491 234.289 94.6158 234.289C94.6261 234.289 94.6517 234.279 94.6722 234.279L140.265 224.262C140.377 224.241 140.47 224.123 140.47 224L140.049 211.451ZM94.8414 233.714L94.6055 230.467L94.5594 229.81L94.503 229.209L94.2209 225.212H94.2106L94.1542 224.498L94.144 224.283L94.1337 224.113V224.077L94.0773 223.353V223.343L93.8978 220.867L93.8209 219.855V219.844L93.8106 219.665V219.654L91.1797 184.185L90.9746 181.417L90.0925 169.571C104.765 163.746 121.058 161.347 130.392 160.382H130.402C133.285 160.089 135.485 159.93 136.787 159.848H136.808C137.285 159.827 137.623 159.801 137.839 159.791L139.516 210.398L139.552 211.569V211.605L139.962 223.815L94.8568 233.729L94.8414 233.714ZM94.1388 224.277L94.1286 224.108V224.072L94.0722 223.348V223.337L93.8927 220.861C93.8465 221.098 93.7696 221.349 93.6568 221.601C93.6106 221.714 93.5439 221.827 93.4619 221.956V221.976C93.4619 221.976 93.4619 221.986 93.4516 221.997L93.4619 222.053L93.5747 223.486L93.5952 223.779L93.6055 224.015L93.626 224.211V224.257C93.7952 224.247 93.9645 224.257 94.1388 224.277ZM94.1388 224.277L94.1286 224.108V224.072L94.0722 223.348V223.337L93.8927 220.861C93.8465 221.098 93.7696 221.349 93.6568 221.601C93.6106 221.714 93.5439 221.827 93.4619 221.956V221.976C93.4619 221.976 93.4619 221.986 93.4516 221.997L93.4619 222.053L93.5747 223.486L93.5952 223.779L93.6055 224.015L93.626 224.211V224.257C93.7952 224.247 93.9645 224.257 94.1388 224.277Z" fill="#FAB76C"/>
  <path d="M29.7352 207.84C29.7352 207.84 58.6137 205.641 66.4091 211.728C67.6245 212.679 67.9938 214.358 67.363 215.771L65.6346 219.634C65.6346 219.634 63.1268 224.37 57.7214 227.462C53.4493 229.907 42.2795 236.647 28.5761 236.837L29.7352 207.84Z" fill="#A75651"/>
  <path d="M41.3153 223.728C41.0538 223.728 40.823 223.548 40.7614 223.286C40.6948 222.983 40.8845 222.675 41.1922 222.608C47.6131 221.159 64.6756 217.178 66.5168 216.146C66.9988 215.874 67.2809 215.535 67.3886 215.103C67.5476 214.435 67.2553 213.706 67.0604 213.321L39.4793 215.324C39.1767 215.355 38.8947 215.113 38.8741 214.8C38.8536 214.487 39.0844 214.215 39.3973 214.194L67.3322 212.165C67.5425 212.144 67.7322 212.247 67.845 212.417C67.8861 212.478 68.8348 213.927 68.4912 215.37C68.3117 216.115 67.8348 216.711 67.0758 217.142C64.7167 218.473 42.3923 223.512 41.4435 223.728C41.4025 223.738 41.3615 223.743 41.3204 223.743L41.3153 223.728Z" fill="#341C17"/>
  <path d="M67.4091 216.608C67.363 216.449 67.286 216.3 67.1732 216.213C67.127 216.177 67.0963 216.156 67.0501 216.136C66.8706 216.043 66.6757 216.059 66.5168 216.146C66.5168 216.146 66.5133 216.149 66.5065 216.156C66.4142 216.213 66.3475 216.28 66.2911 216.382C66.1885 216.577 66.2142 216.778 66.3116 216.952C66.3014 217.019 66.2757 217.204 66.1424 217.523C65.9936 217.898 65.7116 218.463 65.1577 219.331C63.9679 221.195 51.6082 226.055 43.5924 228.87C43.3 228.972 43.1411 229.291 43.2385 229.584C43.3308 229.82 43.5462 229.969 43.7821 229.969C43.8385 229.969 43.9052 229.959 43.9616 229.933C45.7668 229.296 59.7574 224.344 64.5987 221.221H64.6089C65.3475 220.743 65.8654 220.312 66.1065 219.937C67.2399 218.175 67.4655 217.338 67.4553 216.881C67.4553 216.768 67.4348 216.675 67.4091 216.608Z" fill="#341C17"/>
  <path d="M29.73 206.191L28.053 237.751L28.0171 238.342L27.9145 240.422L27.7556 243.329L27.7094 244.182C27.7094 244.182 24.3656 245.148 19.4782 245.713C16.6318 246.042 13.2778 246.247 9.73914 246.042C9.70324 246.042 9.66221 246.042 9.61605 246.031C6.55434 245.852 3.3798 245.374 0.307831 244.408V163.114C3.19005 157.89 5.22606 154.675 5.22606 154.675L13.0162 192.666L15.3292 203.967L15.5446 205.035L16.0677 205.081L16.678 205.128L29.73 206.196V206.191Z" fill="#F1DED9"/>
  <path d="M10.0468 247.069C9.74939 247.069 9.4981 246.838 9.48271 246.535C9.4622 246.221 9.70324 245.954 10.0161 245.934C18.2832 245.43 25.54 242.924 27.1658 242.328L29.1402 206.694L7.0877 204.147C6.77486 204.111 6.55434 203.828 6.59024 203.515C6.62614 203.201 6.9082 202.991 7.21591 203.017L29.7967 205.626C30.0941 205.662 30.3147 205.924 30.2993 206.222L28.2735 242.759C28.2633 242.98 28.1197 243.175 27.9145 243.258C27.8325 243.288 19.6166 246.489 10.0827 247.064C10.0725 247.064 10.0571 247.064 10.0468 247.064V247.069Z" fill="#341C17"/>
  <path d="M87.6872 250.269H49.3824L48.0901 248.677L47.331 247.747L47.0233 247.372C46.1823 246.35 46.013 244.942 46.5566 243.782C46.6489 243.586 46.7618 243.396 46.8849 243.227C47.4541 242.477 48.2131 241.753 49.1311 241.044C50.0748 240.33 51.1825 239.636 52.4083 238.963C52.7724 238.768 53.1365 238.588 53.5058 238.393C59.7523 235.27 68.4758 232.83 74.4711 231.361C74.6762 231.315 74.8659 231.268 75.0608 231.222C76.1583 230.95 77.1481 230.724 77.9995 230.539C78.2046 230.493 78.4097 230.447 78.5892 230.4C78.9072 230.334 79.1893 230.277 79.4508 230.221C80.6099 229.969 81.2766 229.846 81.2766 229.846L84.9281 241.475L87.6821 250.254L87.6872 250.269Z" fill="#A75651"/>
  <path d="M52.8083 248.841C50.2594 248.841 48.326 248.78 47.6644 248.61C46.8182 248.394 46.2028 247.947 45.8335 247.269C45.1258 245.97 45.6591 244.321 45.6848 244.249C45.7515 244.054 45.9156 243.91 46.1156 243.874L73.6095 238.511C73.912 238.455 74.2146 238.655 74.2762 238.958C74.3377 239.266 74.1377 239.564 73.83 239.626L46.6848 244.917C46.5977 245.343 46.5053 246.124 46.8336 246.725C47.049 247.115 47.408 247.367 47.9465 247.506C49.9927 248.024 67.5014 247.398 74.0762 247.11C74.389 247.12 74.6557 247.341 74.6659 247.655C74.6813 247.968 74.4352 248.23 74.1223 248.245C73.3941 248.276 60.3985 248.836 52.8083 248.836V248.841Z" fill="#341C17"/>
  <path d="M50.085 250.233C49.3158 249.54 48.885 249.052 48.6439 248.733H48.6337C48.4388 248.461 48.3619 248.302 48.3413 248.235C48.408 248.055 48.3619 247.84 48.2285 247.68C48.1516 247.588 48.0593 247.542 47.9465 247.511C47.7772 247.465 47.5721 247.511 47.4336 247.634C47.3977 247.67 47.3669 247.701 47.331 247.747C47.2541 247.87 47.1926 248.03 47.1926 248.199C47.1926 248.266 47.2028 248.348 47.2285 248.451V248.461C47.3208 248.815 47.6028 249.36 48.4849 250.269H50.1312C50.1312 250.269 50.0953 250.249 50.085 250.233Z" fill="#341C17"/>
  <path d="M165.697 158.697V244.377C164.256 246.504 161.548 248.384 159.153 249.011C157.542 249.432 155.84 249.853 154.07 250.269H84.4101L82.3125 241.783L79.456 230.231L78.9585 228.233L88.3693 225.644L88.9385 225.485L91.0156 224.93V224.919L91.5849 224.771L93.6363 224.2L94.1337 224.062L99.3032 222.644L99.8469 222.495L135.034 212.817L135.341 212.74L135.567 212.684V212.674L135.875 212.596L139.547 211.585L140.059 211.446L142.26 210.845L142.839 210.686L144.393 210.254L144.403 210.162L144.573 208.991V208.98L144.583 208.924L154.235 142.686C154.235 142.686 159.645 148.511 165.712 158.687L165.697 158.697Z" fill="#F1DED9"/>
  <path d="M78.9534 228.803C78.7072 228.803 78.4815 228.638 78.4097 228.392C78.3226 228.089 78.4969 227.776 78.7995 227.693L154.07 206.237C154.368 206.15 154.686 206.325 154.773 206.628C154.86 206.931 154.686 207.244 154.383 207.326L79.1123 228.782C79.0611 228.798 79.0098 228.803 78.9585 228.803H78.9534Z" fill="#341C17"/>
</svg>