<svg xmlns="http://www.w3.org/2000/svg" width="30" height="50" viewBox="0 0 28 44" fill="none">
  <g clip-path="url(#clip0_1_5571)">
    <path d="M13.9595 16.0585C13.7903 19.873 10.1998 22.6428 8.02306 25.3785C5.93091 28.0078 4.23234 31.681 6.09781 34.9279C6.51236 35.6495 7.3795 36.0964 7.79017 36.8101C5.92703 33.564 7.62249 29.89 9.71464 27.2607C11.8883 24.5251 15.4166 21.6584 15.5859 17.8431C15.28 17.6248 14.6877 16.9754 14.5534 16.8254C14.4191 16.6754 13.9502 16.257 13.9595 16.0585Z" fill="#F7F9FA"/>
    <path d="M16.0889 21.3496C15.5611 23.3843 17.4366 24.614 18.7284 25.7913C19.4147 26.416 20.2445 27.0083 20.8244 27.7386C21.3888 28.4483 21.0861 30.1996 21.0861 30.1996C21.0861 30.1996 22.2598 28.85 22.4663 28.0609C22.6728 27.2718 22.7714 26.3835 22.2738 25.6841C21.7195 24.9045 20.8089 24.2917 20.1071 23.6526C18.8138 22.4753 16.939 21.2464 17.4677 19.207C17.1234 19.5011 16.8247 19.8469 16.5819 20.2326C16.3639 20.5758 16.1975 20.9504 16.0882 21.3441L16.0889 21.3496Z" fill="#F7F9FA"/>
    <path d="M10.0935 6.16223C9.53065 8.42156 10.5787 10.5674 12.0342 12.2202C13.6358 14.0381 15.5634 15.5909 17.3434 17.2215C18.8883 18.633 19.3618 18.9744 20.1801 19.8143C22.8855 22.5928 23.2651 23.863 23.3785 24.5394C23.4483 24.9522 23.6502 26.1493 23.1285 27.4306C23.0647 27.5884 22.9919 27.7421 22.9104 27.8911C22.9104 27.8911 23.8823 26.5002 24.2875 25.7571C25.2098 24.0654 25.1919 21.9236 24.1323 20.2922C23.4988 19.3134 22.5245 18.5671 21.6768 17.7923L18.7245 15.0852C16.9762 13.4864 15.0991 11.9574 13.5085 10.1911C12.0063 8.52397 10.8783 6.44881 11.4738 4.02753C11.1524 4.24901 10.9125 4.58323 10.7254 4.87299C10.5212 5.18419 10.1851 5.79546 10.0935 6.16223Z" fill="#F7F9FA"/>
    <path d="M13.7328 24.7918C13.2057 26.8273 15.0813 28.057 16.3723 29.2374C17.0577 29.8614 17.8884 30.4536 18.4683 31.184C19.0335 31.8945 18.7307 33.645 18.7307 33.645C18.7307 33.645 19.9045 32.2954 20.111 31.5063C20.3175 30.7172 20.4161 29.8289 19.9184 29.1303C19.3634 28.3507 18.4535 27.737 17.7518 27.0988C16.4584 25.9215 14.5836 24.6918 15.1123 22.6531C14.7678 22.9476 14.4689 23.2936 14.2258 23.6796C14.0077 24.0227 13.8413 24.3973 13.732 24.791L13.7328 24.7918Z" fill="#F7F9FA"/>
    <path d="M11.4101 28.0673C11.1268 29.1303 11.4427 30.0607 11.5576 30.3552C11.8915 31.2126 12.9845 32.1517 12.9845 32.1517C12.9845 32.1517 15.1287 34.3031 16.2279 35.3478C18.1959 37.2181 19.2058 38.1462 19.5521 38.7717C21.1777 40.9152 20.406 42.9482 20.406 42.9482C20.406 42.9482 21.4843 41.894 21.7832 40.8143C22.2816 39.0107 21.489 37.3213 20.9293 36.637C19.9278 35.4097 18.7486 34.3007 17.6051 33.2139C16.5051 32.1684 14.3617 30.017 14.3617 30.017C14.3617 30.017 13.2818 29.0921 12.9348 28.2189C12.5218 27.3726 12.6375 26.5518 12.7167 26.0239C12.0993 26.5634 11.6459 27.2725 11.4101 28.0673Z" fill="#F7F9FA"/>
    <path d="M8.00369 25.6238C7.30501 23.2216 7.06591 20.8281 9.00901 18.9553C10.7798 17.2509 13.361 17.0834 15.5859 17.8439C15.4586 17.6732 14.9206 17.0786 14.732 16.8714C14.5239 16.6404 14.1233 16.13 13.8237 16.0276C11.6065 15.271 9.075 15.3647 7.31433 17.0755C5.37355 18.9577 5.60644 21.3306 6.30512 23.7439C6.39285 24.048 6.93161 24.4584 7.14121 24.6966C7.35081 24.9347 7.9082 25.3229 7.99515 25.6293L8.00369 25.6238Z" fill="#F7F9FA"/>
    <path d="M8.29895 12.6906L5.80054 12.5862L5.69844 15.1411L8.19685 15.2455L8.29895 12.6906Z" fill="#F7F9FA"/>
    <path d="M5.71406 15.1489L3.21356 15.0466L3.11354 17.6037L5.61404 17.7059L5.71406 15.1489Z" fill="#F7F9FA"/>
    <path d="M12.4442 2.72637C11.8814 4.9865 12.9294 7.13231 14.385 8.78514C15.9865 10.6023 17.9141 12.1559 19.6941 13.7865C21.239 15.198 21.7125 15.5393 22.53 16.3792C25.2362 19.1578 25.6151 20.4279 25.7292 21.1043C25.799 21.5171 26.0009 22.7143 25.4792 23.9956C25.4154 24.1533 25.3426 24.307 25.2611 24.456C25.2611 24.456 26.233 23.0651 26.6382 22.3221C27.5605 20.6304 27.5419 18.4885 26.483 16.8571C25.8495 15.8783 24.8752 15.1321 24.0275 14.3573L21.0682 11.6518C19.32 10.0537 17.4428 8.52395 15.8514 6.7584C14.3539 5.08891 13.2259 3.01375 13.8214 0.592468C13.5 0.813162 13.2593 1.14817 13.073 1.43793C12.8719 1.74913 12.5358 2.3604 12.4442 2.72637Z" fill="#F7F9FA"/>
    <path d="M0.869349 22.1697C0.306524 24.4298 1.35454 26.5756 2.81013 28.2284C4.41165 30.0456 6.33923 31.5992 8.11931 33.2298C9.66417 34.6413 10.1377 34.9826 10.9559 35.8217C13.6614 38.6003 14.041 39.8704 14.1543 40.5476C14.2242 40.9604 14.4261 42.1576 13.9044 43.4389C13.8406 43.5966 13.7677 43.7503 13.6862 43.8993C13.6862 43.8993 14.6582 42.5084 15.0634 41.7622C15.9857 40.0713 15.9678 37.9294 14.9081 36.2981C14.2747 35.3192 13.3004 34.573 12.4527 33.7982L9.49648 31.0927C7.74823 29.4946 5.87112 27.9649 4.28046 26.1993C2.7783 24.5322 1.65032 22.457 2.24575 20.0358C1.92436 20.2565 1.6837 20.5915 1.49738 20.8812C1.29632 21.1924 0.960178 21.8037 0.869349 22.1697Z" fill="#F7F9FA"/>
    <path d="M9.51861 38.8107L9.38818 41.3643L11.8853 41.4976L12.0157 38.9441L9.51861 38.8107Z" fill="#F7F9FA"/>
    <path d="M7.18106 36.0344L7.05603 38.5914L9.55652 38.7193L9.68155 36.1622L7.18106 36.0344Z" fill="#F7F9FA"/>
  </g>
  <defs>
    <clipPath id="clip0_1_5571">
      <rect width="26.5917" height="43.3044" fill="white" transform="translate(0.714111 0.592468)"/>
    </clipPath>
  </defs>
</svg>