<svg xmlns="http://www.w3.org/2000/svg" width="28" height="55" viewBox="0 0 27 43" fill="none">
  <g opacity="0.5" clip-path="url(#clip0_0_982)">
    <path d="M13.4488 15.3573C13.2769 19.145 9.63137 21.8953 7.42118 24.6117C5.2969 27.2225 3.57225 30.8699 5.46637 34.094C5.88728 34.8105 6.76774 35.2543 7.18471 35.963C5.29296 32.7397 7.01445 29.0915 9.13873 26.4807C11.3458 23.7643 14.9283 20.9178 15.1001 17.1294C14.7895 16.9126 14.1881 16.2678 14.0518 16.1188C13.9154 15.9698 13.4393 15.5544 13.4488 15.3573Z" fill="#8B6B46"/>
    <path d="M15.6109 20.6112C15.0749 22.6316 16.9792 23.8526 18.2909 25.0217C18.9876 25.642 19.8303 26.2301 20.4191 26.9553C20.9921 27.66 20.6847 29.399 20.6847 29.399C20.6847 29.399 21.8765 28.0589 22.0862 27.2754C22.2958 26.4918 22.3959 25.6097 21.8907 24.9152C21.3279 24.1411 20.4033 23.5326 19.6907 22.898C18.3776 21.729 16.474 20.5087 17.0108 18.4836C16.6612 18.7757 16.358 19.1191 16.1114 19.5021C15.89 19.8428 15.7211 20.2148 15.6101 20.6057L15.6109 20.6112Z" fill="#8B6B46"/>
    <path d="M9.52338 5.53058C8.95192 7.77403 10.016 9.90476 11.494 11.546C13.1201 13.3511 15.0772 14.893 16.8847 16.5121C18.4532 17.9137 18.9341 18.2527 19.7648 19.0867C22.5118 21.8457 22.8973 23.1069 23.0123 23.7785C23.0833 24.1884 23.2882 25.3772 22.7585 26.6494C22.6938 26.8061 22.6198 26.9587 22.537 27.1066C22.537 27.1066 23.5239 25.7256 23.9354 24.9877C24.8718 23.3079 24.8537 21.1811 23.7777 19.5612C23.1345 18.5893 22.1453 17.8483 21.2845 17.0789L18.2869 14.3909C16.5118 12.8033 14.6059 11.285 12.9908 9.53111C11.4656 7.87572 10.3203 5.81515 10.9249 3.41089C10.5985 3.63082 10.355 3.96269 10.165 4.25041C9.9577 4.55942 9.61639 5.16639 9.52338 5.53058Z" fill="#8B6B46"/>
    <path d="M13.2186 24.0292C12.6834 26.0504 14.5878 27.2714 15.8986 28.4436C16.5946 29.0632 17.438 29.6512 18.0268 30.3765C18.6006 31.082 18.2932 32.8201 18.2932 32.8201C18.2932 32.8201 19.485 31.4801 19.6947 30.6965C19.9044 29.9129 20.0045 29.0309 19.4992 28.3372C18.9356 27.5631 18.0118 26.9537 17.2993 26.32C15.9861 25.1509 14.0825 23.9299 14.6193 21.9056C14.2695 22.1979 13.966 22.5416 13.7191 22.9248C13.4977 23.2655 13.3287 23.6375 13.2178 24.0284L13.2186 24.0292Z" fill="#8B6B46"/>
    <path d="M10.8602 27.2817C10.5725 28.3372 10.8933 29.261 11.01 29.5535C11.3489 30.4048 12.4587 31.3374 12.4587 31.3374C12.4587 31.3374 14.6358 33.4736 15.752 34.511C17.7501 36.3682 18.7756 37.2897 19.1272 37.9109C20.7777 40.0392 19.9942 42.058 19.9942 42.058C19.9942 42.058 21.0891 41.0112 21.3925 39.9391C21.8986 38.1481 21.0938 36.4707 20.5255 35.7912C19.5087 34.5725 18.3113 33.4713 17.1503 32.3921C16.0334 31.3539 13.8571 29.2177 13.8571 29.2177C13.8571 29.2177 12.7606 28.2993 12.4083 27.4322C11.989 26.5919 12.1064 25.7768 12.1868 25.2526C11.56 25.7884 11.0996 26.4925 10.8602 27.2817Z" fill="#8B6B46"/>
    <path d="M7.40147 24.8553C6.69206 22.47 6.44929 20.0933 8.42223 18.2338C10.2202 16.5413 12.841 16.375 15.1001 17.1302C14.9708 16.9607 14.4246 16.3703 14.2331 16.1645C14.0218 15.9351 13.6151 15.4283 13.3108 15.3266C11.0596 14.5753 8.48923 14.6684 6.70152 16.3671C4.73095 18.2361 4.96742 20.5923 5.67682 22.9887C5.76589 23.2906 6.31293 23.6981 6.52575 23.9346C6.73857 24.1711 7.30452 24.5566 7.3928 24.8609L7.40147 24.8553Z" fill="#8B6B46"/>
    <path d="M7.70132 12.0131L5.16455 11.9094L5.06089 14.4464L7.59765 14.55L7.70132 12.0131Z" fill="#8B6B46"/>
    <path d="M5.0767 14.4541L2.53781 14.3525L2.43626 16.8916L4.97514 16.9932L5.0767 14.4541Z" fill="#8B6B46"/>
    <path d="M11.9101 2.1189C11.3387 4.36314 12.4028 6.49387 13.8807 8.13507C15.5068 9.93945 17.464 11.4821 19.2714 13.1012C20.84 14.5028 21.3208 14.8418 22.1508 15.6758C24.8986 18.4348 25.2832 19.696 25.3991 20.3676C25.47 20.7775 25.675 21.9663 25.1453 23.2386C25.0805 23.3952 25.0066 23.5478 24.9238 23.6958C24.9238 23.6958 25.9107 22.3147 26.3221 21.5769C27.2585 19.897 27.2396 17.7702 26.1645 16.1503C25.5213 15.1784 24.5321 14.4374 23.6713 13.668L20.6666 10.9816C18.8915 9.39474 16.9855 7.87573 15.3697 6.12259C13.8492 4.46483 12.7039 2.40426 13.3085 0C12.9821 0.219142 12.7378 0.551797 12.5486 0.83952C12.3445 1.14853 12.0032 1.7555 11.9101 2.1189Z" fill="#8B6B46"/>
    <path d="M0.157587 21.4255C-0.413879 23.6698 0.650231 25.8005 2.12816 27.4417C3.75428 29.2461 5.71145 30.7887 7.51886 32.4079C9.08744 33.8094 9.56826 34.1484 10.399 34.9816C13.146 37.7406 13.5315 39.0018 13.6466 39.6742C13.7175 40.0842 13.9224 41.2729 13.3927 42.5452C13.328 42.7018 13.254 42.8545 13.1713 43.0024C13.1713 43.0024 14.1581 41.6213 14.5696 40.8803C15.506 39.2013 15.4879 37.0745 14.4119 35.4546C13.7687 34.4826 12.7795 33.7416 11.9188 32.9723L8.91718 30.2858C7.14209 28.699 5.23615 27.18 3.62107 25.4268C2.09584 23.7714 0.950546 21.7109 1.55512 19.3066C1.22879 19.5258 0.98444 19.8584 0.795265 20.1461C0.591113 20.4551 0.24981 21.0621 0.157587 21.4255Z" fill="#8B6B46"/>
    <path d="M8.9397 37.9495L8.80727 40.4851L11.3427 40.6175L11.4751 38.0819L8.9397 37.9495Z" fill="#8B6B46"/>
    <path d="M6.56626 35.1928L6.43932 37.7318L8.9782 37.8588L9.10515 35.3197L6.56626 35.1928Z" fill="#8B6B46"/>
  </g>
  <defs>
    <clipPath id="clip0_0_982">
      <rect width="27" height="43" fill="white"/>
    </clipPath>
  </defs>
</svg>