<svg width="369" height="368" viewBox="0 0 369 368" fill="none" xmlns="http://www.w3.org/2000/svg">
<rect x="144" y="143" width="81" height="82" rx="20" fill="#007D71"/>
<g clip-path="url(#clip0_5_2)">
<path d="M184.422 174.572C184.161 180.385 178.625 184.607 175.269 188.776C172.043 192.783 169.425 198.382 172.301 203.33C172.94 204.43 174.277 205.111 174.91 206.199C172.037 201.252 174.652 195.652 177.877 191.645C181.229 187.475 186.669 183.106 186.93 177.292C186.458 176.959 185.545 175.969 185.338 175.74C185.131 175.512 184.408 174.874 184.422 174.572Z" fill="white"/>
<path d="M187.705 182.636C186.891 185.737 189.783 187.611 191.775 189.405C192.833 190.358 194.113 191.26 195.007 192.373C195.877 193.455 195.41 196.124 195.41 196.124C195.41 196.124 197.22 194.067 197.538 192.864C197.857 191.662 198.009 190.308 197.241 189.242C196.387 188.054 194.983 187.12 193.901 186.146C191.907 184.351 189.016 182.479 189.831 179.37C189.3 179.819 188.84 180.346 188.465 180.933C188.129 181.456 187.873 182.027 187.704 182.627L187.705 182.636Z" fill="white"/>
<path d="M178.461 159.489C177.594 162.932 179.21 166.203 181.454 168.722C183.923 171.492 186.895 173.859 189.64 176.344C192.022 178.495 192.752 179.016 194.013 180.296C198.185 184.531 198.77 186.466 198.945 187.497C199.052 188.126 199.364 189.951 198.559 191.904C198.461 192.144 198.349 192.379 198.223 192.606C198.223 192.606 199.721 190.486 200.346 189.353C201.768 186.775 201.741 183.511 200.107 181.024C199.13 179.532 197.628 178.395 196.321 177.214L191.769 173.088C189.074 170.652 186.179 168.321 183.727 165.629C181.411 163.088 179.672 159.926 180.59 156.235C180.094 156.573 179.724 157.082 179.436 157.524C179.121 157.998 178.603 158.93 178.461 159.489Z" fill="white"/>
<path d="M184.073 187.882C183.26 190.984 186.152 192.858 188.142 194.658C189.199 195.609 190.48 196.511 191.374 197.624C192.245 198.707 191.779 201.375 191.779 201.375C191.779 201.375 193.588 199.318 193.907 198.116C194.225 196.913 194.377 195.559 193.61 194.494C192.754 193.306 191.351 192.371 190.269 191.398C188.275 189.604 185.385 187.73 186.2 184.623C185.669 185.071 185.208 185.599 184.833 186.187C184.497 186.71 184.24 187.281 184.071 187.881L184.073 187.882Z" fill="white"/>
<path d="M180.491 192.874C180.055 194.494 180.542 195.912 180.719 196.361C181.234 197.668 182.919 199.099 182.919 199.099C182.919 199.099 186.225 202.378 187.92 203.97C190.954 206.821 192.511 208.235 193.045 209.189C195.551 212.456 194.362 215.554 194.362 215.554C194.362 215.554 196.024 213.947 196.485 212.302C197.253 209.553 196.031 206.978 195.168 205.935C193.624 204.065 191.806 202.374 190.043 200.718C188.347 199.125 185.042 195.846 185.042 195.846C185.042 195.846 183.377 194.436 182.842 193.105C182.205 191.815 182.384 190.564 182.506 189.76C181.554 190.582 180.855 191.663 180.491 192.874V192.874Z" fill="white"/>
<path d="M175.239 189.15C174.162 185.489 173.793 181.841 176.789 178.987C179.52 176.389 183.499 176.134 186.93 177.293C186.733 177.033 185.904 176.126 185.613 175.811C185.292 175.459 184.675 174.681 184.213 174.525C180.794 173.371 176.891 173.514 174.176 176.122C171.184 178.99 171.543 182.607 172.62 186.285C172.756 186.748 173.586 187.374 173.909 187.737C174.233 188.1 175.092 188.691 175.226 189.159L175.239 189.15Z" fill="white"/>
<path d="M175.695 169.439L171.842 169.28L171.685 173.174L175.537 173.333L175.695 169.439Z" fill="white"/>
<path d="M171.709 173.185L167.854 173.029L167.7 176.927L171.555 177.083L171.709 173.185Z" fill="white"/>
<path d="M182.086 154.252C181.218 157.697 182.834 160.967 185.078 163.486C187.547 166.256 190.519 168.624 193.264 171.109C195.646 173.26 196.376 173.78 197.636 175.06C201.809 179.295 202.393 181.231 202.569 182.262C202.677 182.891 202.988 184.716 202.184 186.668C202.085 186.909 201.973 187.143 201.847 187.37C201.847 187.37 203.346 185.25 203.971 184.118C205.393 181.54 205.364 178.275 203.731 175.789C202.755 174.297 201.252 173.16 199.945 171.979L195.383 167.855C192.687 165.42 189.793 163.088 187.339 160.397C185.03 157.853 183.291 154.69 184.209 151C183.714 151.336 183.343 151.847 183.055 152.289C182.745 152.763 182.227 153.694 182.086 154.252Z" fill="white"/>
<path d="M164.239 183.886C163.372 187.33 164.987 190.601 167.232 193.12C169.701 195.889 172.673 198.257 175.418 200.742C177.8 202.894 178.53 203.414 179.791 204.693C183.963 208.927 184.548 210.863 184.723 211.895C184.83 212.525 185.142 214.349 184.337 216.302C184.239 216.542 184.127 216.777 184.001 217.004C184.001 217.004 185.499 214.884 186.124 213.747C187.546 211.169 187.519 207.905 185.885 205.419C184.908 203.927 183.406 202.789 182.099 201.609L177.541 197.485C174.845 195.05 171.951 192.718 169.499 190.027C167.183 187.486 165.444 184.324 166.362 180.633C165.866 180.97 165.495 181.48 165.208 181.922C164.898 182.396 164.379 183.328 164.239 183.886Z" fill="white"/>
<path d="M177.575 209.248L177.374 213.14L181.224 213.343L181.425 209.451L177.575 209.248Z" fill="white"/>
<path d="M173.971 205.017L173.778 208.914L177.634 209.109L177.826 205.212L173.971 205.017Z" fill="white"/>
</g>
<defs>
<clipPath id="clip0_5_2">
<rect width="41" height="66" fill="white" transform="translate(164 151)"/>
</clipPath>
</defs>
</svg>
